<svg id="visual" viewBox="0 0 900 600" width="900" height="600" xmlns="http://www.w3.org/2000/svg" xmlns:xlink="http://www.w3.org/1999/xlink" version="1.1"><path d="M0 457L18.8 459.5C37.7 462 75.3 467 112.8 461.2C150.3 455.3 187.7 438.7 225.2 433.7C262.7 428.7 300.3 435.3 337.8 442.8C375.3 450.3 412.7 458.7 450.2 460.7C487.7 462.7 525.3 458.3 562.8 454.7C600.3 451 637.7 448 675.2 441.8C712.7 435.7 750.3 426.3 787.8 424.8C825.3 423.3 862.7 429.7 881.3 432.8L900 436L900 601L881.3 601C862.7 601 825.3 601 787.8 601C750.3 601 712.7 601 675.2 601C637.7 601 600.3 601 562.8 601C525.3 601 487.7 601 450.2 601C412.7 601 375.3 601 337.8 601C300.3 601 262.7 601 225.2 601C187.7 601 150.3 601 112.8 601C75.3 601 37.7 601 18.8 601L0 601Z" fill="#14b8a6"></path><path d="M0 479L18.8 484.8C37.7 490.7 75.3 502.3 112.8 501.3C150.3 500.3 187.7 486.7 225.2 485.7C262.7 484.7 300.3 496.3 337.8 495.3C375.3 494.3 412.7 480.7 450.2 475.8C487.7 471 525.3 475 562.8 481.8C600.3 488.7 637.7 498.3 675.2 499.2C712.7 500 750.3 492 787.8 493.7C825.3 495.3 862.7 506.7 881.3 512.3L900 518L900 601L881.3 601C862.7 601 825.3 601 787.8 601C750.3 601 712.7 601 675.2 601C637.7 601 600.3 601 562.8 601C525.3 601 487.7 601 450.2 601C412.7 601 375.3 601 337.8 601C300.3 601 262.7 601 225.2 601C187.7 601 150.3 601 112.8 601C75.3 601 37.7 601 18.8 601L0 601Z" fill="#118a7f"></path><path d="M0 547L18.8 542.2C37.7 537.3 75.3 527.7 112.8 526C150.3 524.3 187.7 530.7 225.2 535C262.7 539.3 300.3 541.7 337.8 541C375.3 540.3 412.7 536.7 450.2 532.2C487.7 527.7 525.3 522.3 562.8 527C600.3 531.7 637.7 546.3 675.2 550C712.7 553.7 750.3 546.3 787.8 541C825.3 535.7 862.7 532.3 881.3 530.7L900 529L900 601L881.3 601C862.7 601 825.3 601 787.8 601C750.3 601 712.7 601 675.2 601C637.7 601 600.3 601 562.8 601C525.3 601 487.7 601 450.2 601C412.7 601 375.3 601 337.8 601C300.3 601 262.7 601 225.2 601C187.7 601 150.3 601 112.8 601C75.3 601 37.7 601 18.8 601L0 601Z" fill="#115e59"></path></svg>