<svg xmlns="http://www.w3.org/2000/svg" viewBox="0 15.210000038146973 321.4599914550781 38.040000915527344" data-asc="1.037109375" width="321.4599914550781" height="38.040000915527344"><defs/><g fill="#26a269"><g transform="translate(0, 0)"><path d="M24.00 32.10L23.71 32.20Q21.36 33.23 19.60 34.62Q17.85 36.01 16.55 37.92L16.31 38.16Q15.41 38.53 14.43 39.14Q13.45 39.75 12.49 40.50Q11.52 41.26 10.66 42.13Q9.79 42.99 9.11 43.90Q9.06 44.09 9.08 44.27Q9.11 44.46 9.11 44.65Q9.11 45.95 9.30 47.18Q9.50 48.41 9.96 49.66L10.06 49.90L9.96 50.10Q9.94 50.15 9.69 50.52Q9.45 50.90 8.89 51.34Q8.33 51.78 7.36 52.15Q6.40 52.51 4.96 52.51Q3.52 52.51 2.58 52.12Q1.64 51.73 1.09 51.27Q0.54 50.81 0.32 50.40Q0.10 50 0.10 49.95L0 49.71L0.10 49.51Q0.66 48.14 0.93 46.73Q1.20 45.31 1.20 43.80Q1.20 42.77 1.09 41.74Q0.98 40.70 0.71 39.60L0.71 39.31Q1.00 38.09 1.18 36.91Q1.37 35.74 1.37 34.59Q1.37 33.28 1.15 32.04Q0.93 30.81 0.56 29.57L0.51 29.35L0.61 29.15Q1.66 26.46 1.66 23.80Q1.66 22.75 1.50 21.70Q1.34 20.65 1.00 19.56L0.90 19.26L1.10 18.99Q1.12 18.97 1.29 18.79Q1.46 18.60 1.81 18.35Q2.15 18.09 2.69 17.83Q3.22 17.58 3.96 17.41Q4.42 16.67 5.00 16.25Q5.59 15.82 6.12 15.60Q6.64 15.38 7.02 15.31Q7.40 15.23 7.45 15.21L7.71 15.21L7.91 15.36Q8.69 16.06 9.47 16.56Q10.25 17.07 11.10 17.44Q11.94 17.82 12.89 18.09Q13.84 18.36 14.97 18.55Q15.09 18.55 15.21 18.58Q15.33 18.60 15.45 18.60L15.65 18.60L15.87 18.75Q16.85 19.58 17.74 20.18Q18.63 20.78 19.58 21.18Q20.53 21.58 21.58 21.80Q22.63 22.02 23.90 22.09L24.22 22.09L24.41 22.36Q24.41 22.41 24.50 22.58Q24.58 22.75 24.68 23.06Q24.78 23.36 24.87 23.79Q24.95 24.22 24.95 24.76Q24.95 25.24 24.87 25.81Q24.78 26.37 24.56 27.00Q24.19 28.03 23.71 28.71Q23.97 29.35 24.06 29.92Q24.15 30.49 24.15 30.91Q24.15 31.27 24.10 31.52Q24.05 31.76 24.05 31.81L24.00 32.10M4.30 24.32L4.15 24.10Q4.10 24.07 3.93 23.88Q3.76 23.68 3.56 23.30Q3.37 22.92 3.21 22.36Q3.05 21.80 3.05 21.04Q3.05 20.46 3.11 19.93Q3.17 19.41 3.30 18.95Q2.93 19.14 2.70 19.29Q2.47 19.43 2.32 19.56Q2.91 21.73 2.91 23.85Q2.91 25 2.72 26.14Q2.54 27.27 2.15 28.39Q2.71 28.25 3.26 28.17Q3.81 28.10 4.30 28.10Q5.64 28.10 6.32 28.27Q7.01 28.44 7.28 28.64Q7.59 28.88 7.57 29.15Q7.57 29.37 7.41 29.52Q7.25 29.66 7.06 29.66Q7.01 29.66 6.92 29.60Q6.84 29.54 6.59 29.46Q6.35 29.37 5.91 29.31Q5.47 29.25 4.71 29.25Q4.10 29.25 3.39 29.37Q2.69 29.49 1.90 29.81Q2.61 32.15 2.61 34.55Q2.61 35.57 2.48 36.63Q2.34 37.70 2.10 38.75Q2.49 38.70 2.88 38.67Q3.27 38.65 3.66 38.65Q4.22 38.65 4.94 38.71Q5.66 38.77 6.30 38.89Q6.93 39.01 7.37 39.21Q7.81 39.40 7.81 39.65Q7.81 39.84 7.65 40.00Q7.50 40.16 7.30 40.16Q6.74 40.16 5.98 39.98Q5.22 39.79 4.35 39.79Q3.78 39.79 3.17 39.84Q2.56 39.89 2.00 40.01Q2.25 41.04 2.33 42.00Q2.42 42.97 2.42 43.90Q2.42 45.41 2.15 46.86Q1.88 48.32 1.37 49.71Q1.46 49.88 1.70 50.15Q1.93 50.42 2.36 50.67Q2.78 50.93 3.42 51.11Q4.05 51.29 4.96 51.29Q5.86 51.29 6.52 51.11Q7.18 50.93 7.63 50.70Q8.08 50.46 8.34 50.21Q8.59 49.95 8.72 49.80Q7.86 47.19 7.86 44.75Q7.86 43.38 8.09 42.05Q8.33 40.72 8.81 39.40Q8.40 38.16 8.20 36.91Q8.01 35.67 8.01 34.35Q8.01 33.11 8.19 31.81Q8.37 30.52 8.76 29.15Q8.15 27.25 8.15 25.15L8.15 24.90Q7.32 24.63 6.47 24.50Q5.62 24.37 4.57 24.32L4.30 24.32M23.46 23.27Q22.29 23.17 21.34 22.97Q20.39 22.78 19.52 22.44Q18.65 22.09 17.81 21.61Q16.97 21.12 16.06 20.41Q16.02 21.46 15.71 22.29Q15.41 23.12 15.08 23.71Q14.75 24.29 14.47 24.61Q14.18 24.93 14.16 24.95Q14.01 25.10 13.82 25.10Q13.57 25.10 13.44 24.95Q13.31 24.80 13.31 24.61Q13.31 24.41 13.40 24.32Q13.43 24.29 13.65 23.99Q13.87 23.68 14.12 23.13Q14.38 22.58 14.60 21.84Q14.82 21.09 14.82 20.17Q14.82 19.97 14.81 19.84Q14.79 19.70 14.55 19.70Q13.40 19.48 12.44 19.21Q11.47 18.95 10.61 18.55Q9.74 18.16 8.94 17.66Q8.13 17.16 7.30 16.46Q7.15 16.48 6.65 16.69Q6.15 16.89 5.63 17.42Q5.10 17.94 4.68 18.84Q4.25 19.73 4.25 21.09Q4.25 21.95 4.46 22.42Q4.66 22.90 4.86 23.10Q6.01 23.14 6.98 23.32Q7.96 23.49 8.86 23.80Q9.77 24.12 10.64 24.58Q11.52 25.05 12.45 25.66Q12.65 25.78 12.84 25.90Q13.04 26.03 13.26 26.15Q14.43 26.25 15.42 26.46Q16.41 26.68 17.33 27.08Q18.26 27.47 19.18 28.03Q20.09 28.59 21.12 29.35Q21.36 29.22 21.80 28.88Q22.24 28.54 22.68 27.98Q23.12 27.42 23.44 26.61Q23.75 25.81 23.75 24.76Q23.75 24.22 23.67 23.85Q23.58 23.49 23.46 23.27M10.11 39.40L10.01 39.60Q9.57 40.75 9.35 41.89Q10.79 40.43 12.43 39.31Q14.06 38.18 15.65 37.21Q18.36 33.35 22.95 31.30L22.95 30.91Q22.95 30.64 22.91 30.35Q22.88 30.05 22.75 29.71Q22.14 30.15 21.70 30.38Q21.26 30.62 21.22 30.62L20.90 30.71L20.65 30.44Q19.80 29.81 19.03 29.31Q18.26 28.81 17.50 28.47Q16.38 29.64 15.10 30.55Q13.82 31.47 12.30 32.15Q13.16 32.67 13.71 33.31Q14.26 33.96 14.56 34.52Q14.87 35.08 14.99 35.46Q15.11 35.84 15.11 35.86L15.11 36.01Q15.11 36.16 14.98 36.33Q14.84 36.50 14.60 36.50Q14.28 36.50 14.21 36.16Q14.21 36.13 14.05 35.78Q13.89 35.42 13.54 34.92Q13.18 34.42 12.59 33.87Q11.99 33.33 11.11 32.91L9.20 34.91Q9.25 36.04 9.44 37.10Q9.62 38.16 10.01 39.21L10.11 39.40M12.70 27.20Q11.77 26.68 10.96 26.22Q10.16 25.76 9.40 25.42Q9.40 26.32 9.55 27.19Q9.69 28.05 9.96 28.96L9.96 29.30Q9.35 31.37 9.20 33.35Q9.62 32.93 10.00 32.51Q10.38 32.08 10.45 31.81L10.60 31.62L10.82 31.57Q14.04 30.35 16.36 28.00Q15.58 27.73 14.76 27.59Q13.94 27.44 13.01 27.34L12.70 27.20ZM49.93 22.14L49.71 22.41Q46.36 26.20 45.92 30.76L45.92 30.91L45.78 31.05Q44.02 33.28 43.12 35.55Q42.21 37.82 42.07 40.26L42.07 40.45L41.92 40.60Q40.16 42.60 39.18 44.92Q38.21 47.24 38.06 49.90L38.06 50.15L37.87 50.32Q37.84 50.37 37.66 50.51Q37.48 50.66 37.12 50.82Q36.77 50.98 36.25 51.11Q35.74 51.25 35.06 51.25Q34.50 51.25 33.83 51.12Q33.15 51.00 32.37 50.66Q31.01 50.12 30.29 49.41Q29.57 48.71 29.24 48.07Q28.91 47.44 28.86 46.97Q28.81 46.51 28.81 46.46L29.03 46.00Q30.76 44.24 31.81 42.04Q32.86 39.84 33.33 37.11L33.33 37.06Q32.93 36.38 32.45 35.64Q31.96 34.91 31.41 34.23Q30.86 33.54 30.29 32.97Q29.71 32.40 29.13 32.01L28.96 31.91L28.91 31.67Q28.15 29.20 26.79 27.26Q25.44 25.32 23.36 23.80L23.12 23.61L23.12 23.32Q23.12 23.39 23.21 23.01Q23.29 22.63 23.52 22.05Q23.75 21.46 24.17 20.75Q24.58 20.04 25.26 19.45Q25.93 18.85 26.88 18.43Q27.83 18.02 29.13 18.02Q29.61 18.02 29.92 18.09Q30.22 18.16 30.27 18.16L30.57 18.26L30.66 18.55Q32.30 23.29 35.96 26.00L36.16 26.29Q36.33 26.71 36.51 27.19Q36.69 27.66 36.96 28.10Q36.96 28.03 36.99 27.95Q37.01 27.88 37.01 27.76L37.01 27.56L37.16 27.42Q38.99 25.51 39.97 23.36Q40.94 21.22 41.21 18.65L41.21 18.31L41.53 18.16Q41.58 18.12 42.10 17.91Q42.63 17.70 43.63 17.70Q44.82 17.70 45.75 18.01Q46.68 18.31 47.38 18.79Q48.07 19.26 48.55 19.80Q49.02 20.34 49.32 20.80Q49.61 21.26 49.74 21.57Q49.88 21.88 49.88 21.85L49.93 22.14M48.56 21.90Q48.44 21.66 48.07 21.15Q47.71 20.65 47.08 20.17Q46.46 19.68 45.59 19.31Q44.73 18.95 43.63 18.95Q43.21 18.95 42.88 19.01Q42.55 19.07 42.36 19.12Q42.09 21.48 41.24 23.49Q40.38 25.49 38.87 27.29Q39.97 27.39 40.83 27.73Q41.70 28.08 42.29 28.45Q42.87 28.83 43.18 29.13Q43.48 29.42 43.51 29.44Q43.60 29.54 43.62 29.61Q43.63 29.69 43.63 29.81Q43.63 30.03 43.47 30.16Q43.31 30.30 43.12 30.30Q42.90 30.30 42.82 30.15Q42.77 30.13 42.43 29.87Q42.09 29.61 41.49 29.31Q40.89 29.00 40.05 28.76Q39.21 28.52 38.16 28.52Q37.89 30.74 37.10 32.81Q36.30 34.89 34.91 36.82Q35.55 36.99 36.40 37.34Q37.26 37.70 38.02 38.11Q38.79 38.53 39.33 38.94Q39.87 39.36 39.87 39.65Q39.87 39.84 39.73 40.00Q39.60 40.16 39.36 40.16Q39.28 40.16 39.20 40.12Q39.11 40.09 39.11 40.01Q38.72 39.70 38.18 39.39Q37.65 39.09 37.02 38.82Q36.40 38.55 35.74 38.33Q35.08 38.11 34.42 37.96Q33.89 40.60 32.82 42.77Q31.76 44.95 30.08 46.70Q30.10 46.83 30.33 47.35Q30.57 47.88 31.14 48.46Q31.71 49.05 32.68 49.52Q33.64 50 35.11 50Q35.79 50 36.23 49.85Q36.67 49.71 36.87 49.56Q37.06 46.80 38.06 44.42Q39.06 42.04 40.87 39.97Q41.06 37.43 42.00 35.08Q42.94 32.74 44.73 30.44Q45.24 25.78 48.56 21.90M36.67 29.96Q36.21 29.13 35.85 28.36Q35.50 27.59 35.11 26.90Q33.28 25.46 31.90 23.57Q30.52 21.68 29.66 19.26L29.17 19.26Q28.64 19.26 27.86 19.45Q27.08 19.63 26.22 20.26Q25.68 20.68 25.34 21.09Q25 21.51 24.79 21.88Q24.58 22.24 24.49 22.55Q24.39 22.85 24.37 23.05Q28.03 25.90 29.66 30.15Q30.32 29.22 31.04 28.69Q31.76 28.15 32.37 27.87Q32.98 27.59 33.40 27.51Q33.81 27.44 33.86 27.42Q34.01 27.47 34.17 27.59Q34.33 27.71 34.33 27.86Q34.33 28.15 34.18 28.26Q34.03 28.37 33.78 28.44Q33.52 28.52 33.15 28.63Q32.79 28.74 32.34 29.03Q31.88 29.32 31.37 29.87Q30.86 30.42 30.32 31.40Q31.30 32.40 32.26 33.53Q33.23 34.67 34.06 35.96Q35.06 34.52 35.69 33.03Q36.33 31.54 36.67 29.96ZM60.74 29.57L60.69 29.71Q59.99 31.37 59.67 32.73Q59.35 34.08 59.35 35.40Q59.35 36.18 59.45 36.96Q59.55 37.74 59.74 38.60L59.79 38.79L59.69 39.01Q58.98 40.41 58.61 41.49Q58.23 42.58 58.15 43.75Q58.64 43.68 59.03 43.58Q59.42 43.48 59.80 43.35Q60.18 43.21 60.58 43.07Q60.99 42.92 61.50 42.75Q61.62 42.70 61.72 42.66Q61.82 42.63 61.94 42.55L62.13 42.46L62.35 42.50Q63.18 42.70 63.93 42.77Q64.67 42.85 65.33 42.85Q66.72 42.85 68.04 42.50Q69.36 42.16 70.95 41.41L71.24 41.26L71.48 41.41Q71.51 41.43 71.83 41.65Q72.14 41.87 72.55 42.35Q72.95 42.82 73.34 43.57Q73.73 44.31 73.90 45.41Q73.95 45.68 73.95 45.92Q73.95 46.17 73.95 46.41Q73.95 47.27 73.75 47.95Q73.56 48.63 73.32 49.11Q73.07 49.58 72.86 49.85Q72.66 50.12 72.63 50.15L72.39 50.42L72.09 50.32Q71.34 50.20 70.65 50.12Q69.97 50.05 69.34 50.05Q67.90 50.05 66.66 50.39Q65.43 50.73 63.99 51.42L63.79 51.51L63.65 51.46Q63.09 51.46 62.55 51.42Q62.01 51.37 61.50 51.37Q59.67 51.37 57.93 51.78Q56.20 52.20 54.54 53.05L54.30 53.15L54.10 53.10Q54.17 53.13 53.74 52.95Q53.30 52.78 52.71 52.33Q52.12 51.88 51.57 51.09Q51.03 50.29 50.90 49.05Q50.24 48.68 49.82 48.25Q49.39 47.83 49.13 47.46Q48.88 47.09 48.78 46.84Q48.68 46.58 48.68 46.56L48.63 46.31L48.73 46.09Q49.19 45.26 49.54 44.53Q49.88 43.80 50.10 43.10Q50.32 42.41 50.43 41.69Q50.54 40.97 50.54 40.11Q50.54 39.11 50.39 37.87L50.44 37.55Q51.07 36.01 51.38 34.69Q51.68 33.37 51.68 32.06Q51.68 31.30 51.59 30.51Q51.49 29.71 51.34 28.86L51.29 28.61L51.39 28.47Q51.95 27.37 52.32 26.45Q52.69 25.54 52.88 24.61Q52.51 24.12 52.26 23.30Q52.00 22.49 52.00 21.31Q52.00 19.75 52.40 18.76Q52.81 17.77 53.31 17.21Q53.81 16.65 54.22 16.46Q54.64 16.26 54.69 16.26L54.93 16.16L55.15 16.26Q56.42 16.89 57.71 17.18Q59.01 17.46 60.45 17.46Q61.04 17.46 61.82 17.44Q62.60 17.43 63.23 17.21L63.45 17.16L63.65 17.26Q65.09 17.90 66.27 18.23Q67.46 18.55 68.70 18.55Q69.46 18.55 70.23 18.44Q71.00 18.33 71.85 18.12L72.14 18.07L72.34 18.26Q72.36 18.29 72.61 18.53Q72.85 18.77 73.11 19.26Q73.36 19.75 73.58 20.50Q73.80 21.24 73.80 22.27L73.80 22.66Q73.73 23.75 73.40 24.57Q73.07 25.39 72.71 25.92Q72.34 26.44 72.03 26.71Q71.73 26.98 71.70 27.00L71.39 27.20L71.09 27.10Q69.65 26.49 68.52 26.20Q67.38 25.90 66.24 25.90Q65.55 25.90 64.87 26.00Q64.18 26.10 63.40 26.29L63.04 26.25Q62.33 26.12 61.74 25.96Q61.16 25.81 60.55 25.66Q60.50 26.03 60.50 26.37Q60.50 26.71 60.50 27.05Q60.50 27.59 60.56 28.15Q60.62 28.71 60.74 29.35L60.74 29.57M57.84 25.24Q56.20 25.24 54.49 25.76L54.25 25.81L54.05 25.71L53.98 25.71Q53.93 25.71 53.88 25.66Q53.74 26.20 53.53 26.75Q53.32 27.29 53.05 27.91Q53.39 27.86 53.71 27.83Q54.03 27.81 54.35 27.81Q55.15 27.81 55.82 27.95Q56.49 28.10 56.98 28.27Q57.47 28.44 57.75 28.59Q58.03 28.74 58.08 28.76Q58.30 28.88 58.30 29.20Q58.30 29.39 58.15 29.55Q58.01 29.71 57.79 29.71Q57.74 29.71 57.62 29.60Q57.50 29.49 57.18 29.36Q56.86 29.22 56.26 29.11Q55.66 29.00 54.64 29.00Q54.20 29.00 53.69 29.05Q53.17 29.10 52.64 29.25Q52.76 30.03 52.82 30.73Q52.88 31.42 52.88 32.10Q52.88 33.35 52.65 34.56Q52.42 35.77 51.90 37.21Q52.64 37.21 53.61 37.33Q54.59 37.45 55.44 37.66Q56.30 37.87 56.90 38.15Q57.50 38.43 57.50 38.75Q57.50 38.94 57.34 39.07Q57.18 39.21 56.98 39.21Q56.93 39.21 56.88 39.21Q56.84 39.21 56.79 39.16Q55.96 38.82 54.75 38.61Q53.54 38.40 52.34 38.40L51.68 38.40Q51.73 38.89 51.76 39.34Q51.78 39.79 51.78 40.21Q51.78 41.14 51.67 41.89Q51.56 42.65 51.33 43.38Q51.10 44.12 50.76 44.86Q50.42 45.61 49.95 46.46Q50.05 46.66 50.29 47.00Q50.54 47.34 51.04 47.67Q51.54 48.00 52.33 48.25Q53.13 48.51 54.30 48.51Q54.96 48.51 55.44 48.39Q55.93 48.27 56.30 48.10Q56.67 47.92 56.91 47.73Q57.15 47.53 57.30 47.41Q57.10 46.51 56.99 45.75Q56.88 45.00 56.88 44.31Q56.88 42.90 57.30 41.58Q57.71 40.26 58.50 38.65Q58.30 37.79 58.19 36.99Q58.08 36.18 58.08 35.40Q58.08 34.01 58.44 32.58Q58.79 31.15 59.50 29.39Q59.38 28.74 59.34 28.10Q59.30 27.47 59.30 26.90Q59.30 26.54 59.31 26.16Q59.33 25.78 59.40 25.42Q59.01 25.34 58.63 25.29Q58.25 25.24 57.84 25.24M72.63 22.61Q72.63 21.22 72.33 20.46Q72.02 19.70 71.80 19.36Q70.95 19.56 70.20 19.65Q69.46 19.75 68.75 19.75Q67.65 19.75 66.61 19.51Q65.58 19.26 64.28 18.80Q64.40 19.26 64.45 19.68Q64.50 20.09 64.50 20.51Q64.50 21.92 64.29 22.63Q64.09 23.34 63.85 23.63Q63.62 23.93 63.43 23.94Q63.23 23.95 63.28 23.95Q63.09 23.95 62.96 23.80Q62.84 23.66 62.84 23.51Q62.84 23.46 62.92 23.36Q62.99 23.27 63.09 23.00Q63.18 22.73 63.26 22.23Q63.33 21.73 63.33 20.85Q63.33 20.34 63.24 19.74Q63.16 19.14 62.94 18.51Q62.33 18.51 61.74 18.58Q61.16 18.65 60.60 18.65Q59.08 18.65 57.68 18.37Q56.27 18.09 54.88 17.46Q54.69 17.58 54.41 17.81Q54.13 18.04 53.86 18.48Q53.59 18.92 53.39 19.60Q53.20 20.29 53.20 21.31Q53.20 22.09 53.33 22.66Q53.47 23.22 53.67 23.60Q53.88 23.97 54.09 24.22Q54.30 24.46 54.44 24.56Q55.30 24.34 56.10 24.22Q56.91 24.10 57.74 24.10Q59.03 24.10 60.50 24.34Q61.96 24.58 63.23 25.10Q64.01 24.90 64.72 24.83Q65.43 24.76 66.14 24.76Q67.36 24.76 68.57 25.02Q69.78 25.29 71.24 25.85Q71.39 25.71 71.61 25.44Q71.83 25.17 72.05 24.77Q72.27 24.37 72.42 23.83Q72.58 23.29 72.63 22.61M58.59 47.66L58.45 47.90Q58.42 47.92 58.20 48.22Q57.98 48.51 57.50 48.85Q57.01 49.19 56.23 49.48Q55.44 49.76 54.35 49.76Q53.78 49.76 53.30 49.72Q52.81 49.68 52.39 49.56Q52.56 50.15 52.81 50.55Q53.05 50.95 53.31 51.23Q53.56 51.51 53.81 51.67Q54.05 51.83 54.20 51.90Q55.96 51.00 57.75 50.57Q59.55 50.15 61.45 50.15Q62.01 50.15 62.54 50.20Q63.06 50.24 63.60 50.24Q65.14 49.58 66.48 49.24Q67.82 48.90 69.34 48.90Q69.95 48.90 70.59 48.94Q71.24 48.97 71.95 49.10Q72.17 48.80 72.46 48.12Q72.75 47.44 72.75 46.41Q72.75 45.58 72.56 44.93Q72.36 44.29 72.09 43.81Q71.83 43.33 71.56 43.03Q71.29 42.72 71.14 42.60Q69.53 43.36 68.20 43.71Q66.87 44.07 65.38 44.07Q64.94 44.07 64.42 44.02Q63.89 43.97 63.33 43.90Q63.75 44.75 63.89 45.56Q64.04 46.36 64.04 47.00Q64.04 47.88 63.96 48.33Q63.89 48.78 63.79 48.96Q63.70 49.15 63.59 49.15Q63.48 49.15 63.40 49.15Q63.16 49.15 63.00 49.02Q62.84 48.90 62.84 48.71Q62.84 48.66 62.87 48.62Q62.89 48.58 62.92 48.49Q62.94 48.39 62.96 48.17Q62.99 47.95 62.99 47.51Q62.99 46.83 62.78 45.87Q62.57 44.92 61.94 43.90Q61.87 43.90 61.82 43.92Q61.77 43.95 61.69 43.99Q61.18 44.14 60.75 44.29Q60.33 44.43 59.92 44.57Q59.52 44.70 59.09 44.80Q58.67 44.90 58.15 44.95Q58.20 45.51 58.30 46.13Q58.40 46.75 58.54 47.46L58.59 47.66ZM103.86 47.85L103.76 48.10Q103.76 48.12 103.53 48.58Q103.30 49.05 102.67 49.60Q102.05 50.15 100.96 50.60Q99.88 51.05 98.19 51.05Q97.09 51.05 96.34 50.79Q95.58 50.54 95.04 50.15Q93.92 50.32 92.83 50.62Q91.75 50.93 90.70 51.42L90.55 51.51L90.41 51.46Q89.79 51.46 89.25 51.42Q88.70 51.37 88.11 51.37Q86.13 51.37 84.05 51.78Q81.96 52.20 80.30 53.05L80.05 53.15L79.86 53.10Q79.93 53.13 79.49 52.95Q79.05 52.78 78.47 52.33Q77.88 51.88 77.33 51.09Q76.78 50.29 76.66 49.05Q76.00 48.68 75.57 48.25Q75.15 47.83 74.89 47.46Q74.63 47.09 74.54 46.84Q74.44 46.58 74.44 46.56L74.39 46.31L74.49 46.09Q74.95 45.26 75.29 44.53Q75.63 43.80 75.85 43.10Q76.07 42.41 76.18 41.69Q76.29 40.97 76.29 40.11Q76.29 39.11 76.15 37.87L76.20 37.55Q76.83 36.01 77.14 34.69Q77.44 33.37 77.44 32.06Q77.44 31.30 77.34 30.51Q77.25 29.71 77.10 28.86L77.05 28.61L77.15 28.47Q77.71 27.37 78.08 26.45Q78.44 25.54 78.64 24.61Q78.27 24.12 78.02 23.30Q77.76 22.49 77.76 21.31Q77.76 19.75 78.16 18.76Q78.56 17.77 79.06 17.21Q79.57 16.65 79.98 16.46Q80.40 16.26 80.44 16.26L80.69 16.16L80.91 16.26Q82.18 16.89 83.47 17.18Q84.77 17.46 86.21 17.46Q86.79 17.46 87.57 17.44Q88.35 17.43 88.99 17.21L89.21 17.16L89.40 17.26Q90.72 17.87 91.85 18.19Q92.97 18.51 94.09 18.55Q94.70 18.29 95.46 18.07Q96.22 17.85 97.19 17.85Q98.17 17.85 98.93 18.08Q99.68 18.31 100.21 18.60Q100.73 18.90 101.01 19.14Q101.29 19.38 101.34 19.41L101.59 19.65L101.49 19.95Q101.22 21.02 101.09 21.98Q100.95 22.95 100.95 23.85Q100.95 25.07 101.21 26.21Q101.46 27.34 101.95 28.56L102.05 28.71L102.00 28.91Q101.86 29.83 101.76 30.68Q101.66 31.52 101.66 32.35Q101.66 33.94 101.99 35.39Q102.32 36.84 103.00 38.31L103.10 38.45L103.00 38.70Q102.73 39.77 102.59 40.69Q102.44 41.60 102.44 42.46Q102.44 43.75 102.76 44.98Q103.08 46.22 103.76 47.66L103.86 47.85M86.50 29.57L86.45 29.71Q85.74 31.37 85.42 32.73Q85.11 34.08 85.11 35.40Q85.11 36.18 85.21 36.96Q85.30 37.74 85.50 38.60L85.55 38.79L85.45 39.01Q84.74 40.43 84.36 41.52Q83.98 42.60 83.91 43.75Q84.50 43.68 85.18 43.58Q85.86 43.48 86.51 43.35Q87.16 43.21 87.73 43.02Q88.31 42.82 88.70 42.55L88.89 42.46L89.09 42.50Q89.94 42.70 90.76 42.77Q91.58 42.85 92.36 42.85Q93.43 42.85 94.51 42.70Q94.38 41.99 94.20 41.22Q94.02 40.45 93.75 39.60L93.70 39.31Q93.99 37.67 93.99 36.11Q93.99 34.52 93.66 33.07Q93.33 31.62 92.70 30.10L92.60 29.91L92.65 29.66Q92.92 28.71 93.09 27.81Q93.26 26.90 93.31 26.00Q92.97 25.95 92.64 25.93Q92.31 25.90 91.99 25.90Q91.31 25.90 90.63 26.00Q89.94 26.10 89.16 26.29L88.79 26.25Q88.09 26.12 87.50 25.96Q86.91 25.81 86.30 25.66Q86.25 26.03 86.25 26.37Q86.25 26.71 86.25 27.05Q86.25 27.59 86.32 28.15Q86.38 28.71 86.50 29.35L86.50 29.57M83.59 25.24Q81.96 25.24 80.25 25.76L80.00 25.81L79.81 25.71L79.74 25.71Q79.69 25.71 79.64 25.66Q79.49 26.20 79.28 26.75Q79.08 27.29 78.81 27.91Q79.15 27.86 79.47 27.83Q79.79 27.81 80.10 27.81Q80.91 27.81 81.58 27.95Q82.25 28.10 82.74 28.27Q83.23 28.44 83.51 28.59Q83.79 28.74 83.84 28.76Q84.06 28.88 84.06 29.20Q84.06 29.39 83.91 29.55Q83.76 29.71 83.54 29.71Q83.50 29.71 83.37 29.60Q83.25 29.49 82.93 29.36Q82.62 29.22 82.02 29.11Q81.42 29.00 80.40 29.00Q79.96 29.00 79.44 29.05Q78.93 29.10 78.39 29.25Q78.52 30.03 78.58 30.73Q78.64 31.42 78.64 32.10Q78.64 33.35 78.41 34.56Q78.17 35.77 77.66 37.21Q78.39 37.21 79.37 37.33Q80.35 37.45 81.20 37.66Q82.06 37.87 82.65 38.15Q83.25 38.43 83.25 38.75Q83.25 38.94 83.09 39.07Q82.93 39.21 82.74 39.21Q82.69 39.21 82.64 39.21Q82.59 39.21 82.54 39.16Q81.71 38.82 80.51 38.61Q79.30 38.40 78.10 38.40L77.44 38.40Q77.49 38.89 77.51 39.34Q77.54 39.79 77.54 40.21Q77.54 41.14 77.43 41.89Q77.32 42.65 77.09 43.38Q76.86 44.12 76.51 44.86Q76.17 45.61 75.71 46.46Q75.81 46.66 76.05 47.00Q76.29 47.34 76.79 47.67Q77.29 48.00 78.09 48.25Q78.88 48.51 80.05 48.51Q80.71 48.51 81.20 48.39Q81.69 48.27 82.06 48.10Q82.42 47.92 82.67 47.73Q82.91 47.53 83.06 47.41Q82.86 46.51 82.75 45.75Q82.64 45.00 82.64 44.31Q82.64 42.90 83.06 41.58Q83.47 40.26 84.25 38.65Q84.06 37.79 83.95 36.99Q83.84 36.18 83.84 35.40Q83.84 34.01 84.19 32.58Q84.55 31.15 85.25 29.39Q85.13 28.74 85.10 28.10Q85.06 27.47 85.06 26.90Q85.06 26.54 85.07 26.16Q85.08 25.78 85.16 25.42Q84.77 25.34 84.39 25.29Q84.01 25.24 83.59 25.24M98.39 22.61Q98.39 21.22 98.08 20.46Q97.78 19.70 97.56 19.36Q96.70 19.56 95.96 19.65Q95.21 19.75 94.51 19.75Q93.41 19.75 92.37 19.51Q91.33 19.26 90.04 18.80Q90.16 19.26 90.21 19.68Q90.26 20.09 90.26 20.51Q90.26 21.92 90.05 22.63Q89.84 23.34 89.61 23.63Q89.38 23.93 89.18 23.94Q88.99 23.95 89.04 23.95Q88.84 23.95 88.72 23.80Q88.60 23.66 88.60 23.51Q88.60 23.46 88.67 23.36Q88.75 23.27 88.84 23.00Q88.94 22.73 89.01 22.23Q89.09 21.73 89.09 20.85Q89.09 20.34 89.00 19.74Q88.92 19.14 88.70 18.51Q88.09 18.51 87.50 18.58Q86.91 18.65 86.35 18.65Q84.84 18.65 83.44 18.37Q82.03 18.09 80.64 17.46Q80.44 17.58 80.16 17.81Q79.88 18.04 79.61 18.48Q79.35 18.92 79.15 19.60Q78.96 20.29 78.96 21.31Q78.96 22.09 79.09 22.66Q79.22 23.22 79.43 23.60Q79.64 23.97 79.85 24.22Q80.05 24.46 80.20 24.56Q81.05 24.34 81.86 24.22Q82.67 24.10 83.50 24.10Q84.79 24.10 86.25 24.34Q87.72 24.58 88.99 25.10Q89.77 24.90 90.48 24.83Q91.19 24.76 91.89 24.76Q93.12 24.76 94.32 25.02Q95.53 25.29 97.00 25.85Q97.14 25.71 97.36 25.44Q97.58 25.17 97.80 24.77Q98.02 24.37 98.18 23.83Q98.34 23.29 98.39 22.61M84.35 47.66L84.20 47.90Q84.18 47.92 83.96 48.22Q83.74 48.51 83.25 48.85Q82.76 49.19 81.98 49.48Q81.20 49.76 80.10 49.76Q79.54 49.76 79.05 49.72Q78.56 49.68 78.15 49.56Q78.32 50.15 78.56 50.55Q78.81 50.95 79.06 51.23Q79.32 51.51 79.57 51.67Q79.81 51.83 79.96 51.90Q80.83 51.46 81.85 51.14Q82.86 50.81 83.92 50.59Q84.99 50.37 86.06 50.26Q87.13 50.15 88.16 50.15Q88.72 50.15 89.26 50.20Q89.79 50.24 90.36 50.24Q93.48 48.90 96.90 48.90Q97.58 48.90 98.27 48.94Q98.95 48.97 99.66 49.10Q99.88 48.80 100.16 48.14Q100.44 47.49 100.44 46.46Q100.44 45.63 100.24 44.96Q100.05 44.29 99.79 43.81Q99.54 43.33 99.27 43.03Q99.00 42.72 98.85 42.60Q97.24 43.36 95.59 43.71Q93.95 44.07 92.26 44.07Q91.72 44.07 91.16 44.02Q90.60 43.97 90.04 43.90Q90.45 44.75 90.63 45.58Q90.80 46.41 90.80 47.05Q90.80 47.90 90.72 48.33Q90.65 48.75 90.55 48.94Q90.45 49.12 90.34 49.13Q90.23 49.15 90.16 49.15Q89.92 49.15 89.76 49.01Q89.60 48.88 89.60 48.66Q89.60 48.63 89.61 48.61Q89.62 48.58 89.65 48.47Q89.67 48.36 89.69 48.14Q89.70 47.92 89.70 47.56Q89.70 46.88 89.49 45.92Q89.28 44.97 88.65 43.90Q88.55 43.90 88.45 43.99Q87.35 44.31 86.22 44.57Q85.08 44.82 83.91 44.95Q83.96 45.51 84.06 46.13Q84.16 46.75 84.30 47.46L84.35 47.66M100.81 39.11Q100.73 39.50 100.24 39.50Q99.58 39.36 98.66 39.36Q97.80 39.36 96.88 39.49Q95.95 39.62 95.09 39.84Q95.34 40.55 95.48 41.20Q95.63 41.85 95.75 42.46Q96.46 42.31 97.18 42.04Q97.90 41.77 98.66 41.41L98.95 41.26L99.24 41.41Q99.24 41.43 99.51 41.61Q99.78 41.80 100.15 42.20Q100.51 42.60 100.88 43.25Q101.25 43.90 101.44 44.80Q101.32 44.24 101.28 43.68Q101.25 43.12 101.25 42.55Q101.25 41.63 101.39 40.66Q101.54 39.70 101.81 38.60Q101.10 37.06 100.74 35.56Q100.39 34.06 100.39 32.40Q100.39 31.57 100.49 30.68Q100.59 29.79 100.76 28.86Q100.27 27.54 100.01 26.31Q99.76 25.07 99.76 23.75Q99.76 22.09 100.20 20.04Q100 19.90 99.69 19.70Q99.39 19.51 98.90 19.36Q99.17 19.85 99.37 20.58Q99.56 21.31 99.56 22.27L99.56 22.66Q99.49 23.75 99.16 24.57Q98.83 25.39 98.46 25.92Q98.10 26.44 97.79 26.71Q97.49 26.98 97.46 27.00L97.14 27.20L96.85 27.10Q95.56 26.59 94.51 26.25Q94.46 26.86 94.38 27.49Q94.31 28.13 94.14 28.81Q94.92 28.47 95.68 28.33Q96.44 28.20 97.05 28.20Q98.10 28.20 98.63 28.31Q99.17 28.42 99.39 28.55Q99.61 28.69 99.61 28.82Q99.61 28.96 99.61 29.00Q99.61 29.27 99.40 29.39Q99.19 29.52 99.05 29.52Q99.02 29.52 98.97 29.49Q98.93 29.47 98.77 29.43Q98.61 29.39 98.32 29.37Q98.02 29.35 97.51 29.35Q96.83 29.35 95.92 29.52Q95.02 29.69 94.04 30.20Q94.65 31.71 94.92 33.14Q95.19 34.57 95.19 36.11Q95.19 37.26 95.04 38.60Q95.73 38.45 96.46 38.38Q97.19 38.31 97.90 38.31Q98.34 38.31 98.84 38.32Q99.34 38.33 99.78 38.39Q100.22 38.45 100.51 38.60Q100.81 38.75 100.81 39.01L100.81 39.11M101.59 45.41Q101.64 45.68 101.65 45.92Q101.66 46.17 101.66 46.41Q101.66 47.34 101.44 48.06Q101.22 48.78 100.95 49.27Q101.66 48.93 102.00 48.52Q102.34 48.12 102.49 47.90Q102.20 47.22 101.95 46.58Q101.71 45.95 101.54 45.31Q101.54 45.36 101.56 45.39Q101.56 45.41 101.59 45.41ZM133.13 19.07L133.03 19.36Q132.59 20.73 132.34 22.02Q132.08 23.32 132.08 24.61Q132.08 25.59 132.24 26.55Q132.40 27.51 132.69 28.52L132.69 28.86Q131.93 31.45 131.93 33.91Q131.93 35.18 132.13 36.38Q132.32 37.57 132.74 38.75L132.74 39.16Q132.25 40.43 132.02 41.72Q131.79 43.02 131.79 44.31Q131.79 46.78 132.64 49.19L132.74 49.46L132.64 49.66Q132.62 49.71 132.37 50.09Q132.13 50.46 131.57 50.90Q131.01 51.34 130.05 51.70Q129.10 52.05 127.69 52.05Q126.51 52.05 125.68 51.82Q124.85 51.59 124.29 51.20L124.05 51.20Q123.39 51.20 122.88 51.06Q122.36 50.93 122.02 50.77Q121.68 50.61 121.50 50.45Q121.31 50.29 121.29 50.24L121.09 50.10L121.09 49.85Q120.97 47.36 120.07 45.09Q119.17 42.82 117.43 40.60L117.33 40.36Q117.04 38.70 116.52 37.23Q115.99 35.77 115.23 34.40Q115.28 35.55 115.47 36.62Q115.65 37.70 116.04 38.75L116.14 38.96L116.04 39.16Q115.58 40.41 115.36 41.66Q115.14 42.92 115.14 44.21Q115.14 45.48 115.33 46.72Q115.53 47.95 115.99 49.19L116.09 49.46L115.99 49.66Q115.97 49.71 115.72 50.09Q115.48 50.46 114.92 50.90Q114.36 51.34 113.39 51.70Q112.43 52.05 110.99 52.05Q109.55 52.05 108.61 51.67Q107.67 51.29 107.12 50.82Q106.57 50.34 106.35 49.95Q106.13 49.56 106.13 49.51L106.03 49.27L106.13 49.05Q106.69 47.71 106.96 46.29Q107.23 44.87 107.23 43.36Q107.23 42.33 107.12 41.30Q107.01 40.26 106.74 39.16L106.74 38.87Q107.03 37.65 107.21 36.46Q107.40 35.28 107.40 34.16Q107.40 32.84 107.18 31.59Q106.96 30.35 106.59 29.10L106.54 28.91L106.64 28.71Q107.69 26.03 107.69 23.36Q107.69 22.29 107.53 21.25Q107.37 20.21 107.03 19.12L106.93 18.80L107.13 18.55Q107.15 18.53 107.42 18.25Q107.69 17.97 108.24 17.64Q108.79 17.31 109.62 17.05Q110.45 16.80 111.60 16.80Q112.70 16.80 113.49 17.05Q114.28 17.31 114.84 17.65L115.23 17.65Q116.26 17.65 116.87 17.88Q117.48 18.12 117.53 18.16L117.85 18.31L117.90 18.60Q118.41 23.63 121.39 27.05L121.53 27.20L121.53 27.34Q122.17 31.35 124.05 34.25L124.05 34.20Q124.05 32.89 123.85 31.64Q123.66 30.40 123.29 29.10L123.29 28.71Q124.34 26.03 124.34 23.27Q124.34 21.17 123.73 19.12L123.63 18.80L123.83 18.55Q123.85 18.53 124.12 18.25Q124.39 17.97 124.94 17.64Q125.49 17.31 126.32 17.05Q127.15 16.80 128.30 16.80Q129.44 16.80 130.30 17.10Q131.15 17.41 131.74 17.77Q132.32 18.14 132.62 18.46Q132.91 18.77 132.93 18.80L133.13 19.07M115.09 19.31Q114.92 19.17 114.62 18.95Q114.33 18.73 113.89 18.53Q113.45 18.33 112.88 18.20Q112.30 18.07 111.60 18.07Q110.91 18.07 110.38 18.18Q109.84 18.29 109.44 18.46Q109.03 18.63 108.76 18.80Q108.50 18.97 108.35 19.12Q108.64 20.21 108.79 21.26Q108.94 22.31 108.94 23.41Q108.94 24.54 108.75 25.68Q108.57 26.83 108.18 27.95Q108.74 27.81 109.29 27.73Q109.84 27.66 110.33 27.66Q111.67 27.66 112.35 27.83Q113.04 28.00 113.31 28.20Q113.62 28.44 113.60 28.71Q113.60 28.93 113.44 29.06Q113.28 29.20 113.09 29.20Q113.04 29.20 112.95 29.14Q112.87 29.08 112.62 29.00Q112.38 28.93 111.94 28.87Q111.50 28.81 110.74 28.81Q110.13 28.81 109.42 28.93Q108.72 29.05 107.93 29.35Q108.28 30.52 108.46 31.69Q108.64 32.86 108.64 34.11Q108.64 35.13 108.51 36.19Q108.37 37.26 108.13 38.31Q108.52 38.26 108.91 38.23Q109.30 38.21 109.69 38.21Q110.25 38.21 110.97 38.27Q111.69 38.33 112.33 38.45Q112.96 38.57 113.40 38.76Q113.84 38.94 113.84 39.21Q113.84 39.40 113.68 39.55Q113.53 39.70 113.33 39.70Q112.77 39.70 112.01 39.53Q111.25 39.36 110.40 39.36Q109.84 39.36 109.22 39.39Q108.59 39.43 108.03 39.55Q108.28 40.58 108.36 41.55Q108.45 42.53 108.45 43.46Q108.45 44.97 108.18 46.42Q107.91 47.88 107.40 49.27Q107.50 49.44 107.73 49.71Q107.96 49.98 108.39 50.23Q108.81 50.49 109.45 50.67Q110.08 50.85 110.99 50.85Q111.89 50.85 112.55 50.67Q113.21 50.49 113.66 50.26Q114.11 50.02 114.37 49.77Q114.62 49.51 114.75 49.37Q113.89 46.75 113.89 44.31Q113.89 42.94 114.12 41.61Q114.36 40.28 114.84 38.96Q114.43 37.72 114.23 36.47Q114.04 35.23 114.04 33.91Q114.04 31.37 114.79 28.71Q114.18 26.71 114.18 24.61Q114.18 21.95 115.09 19.31M116.48 19.07L116.33 19.36Q115.89 20.73 115.66 22.00Q115.43 23.27 115.43 24.56Q115.43 25.59 115.56 26.55Q115.70 27.51 115.99 28.52L115.99 28.61Q116.55 28.37 117.05 28.23Q117.55 28.10 117.94 28.04Q118.33 27.98 118.57 27.97Q118.80 27.95 118.85 27.95Q119.04 27.95 119.19 28.11Q119.34 28.27 119.34 28.47Q119.34 28.66 119.19 28.81Q119.04 28.96 118.85 28.96Q118.80 28.96 118.52 28.99Q118.24 29.03 117.80 29.16Q117.36 29.30 116.80 29.54Q116.24 29.79 115.65 30.20Q115.53 30.74 115.44 31.25Q115.36 31.76 115.28 32.25Q116.43 33.79 117.19 35.53Q117.94 37.28 118.38 39.26Q118.95 38.89 119.63 38.56Q120.31 38.23 121.01 37.98Q121.70 37.72 122.35 37.56Q123.00 37.40 123.49 37.40Q123.68 37.40 123.82 37.52Q123.95 37.65 124.00 37.82Q124.00 38.04 123.88 38.20Q123.75 38.35 123.54 38.35Q122.56 38.50 121.26 39.06Q119.97 39.62 118.85 40.41Q120.46 42.60 121.30 44.84Q122.14 47.07 122.29 49.51Q122.49 49.66 122.92 49.83Q123.36 50 124.05 50Q125.46 50 126.42 49.49Q127.37 48.97 127.94 48.33Q128.52 47.68 128.76 47.13Q129.00 46.58 129.03 46.51Q125.27 42.43 124.73 37.01Q123.00 35.16 121.91 32.90Q120.83 30.64 120.34 27.76Q118.82 25.95 117.91 23.79Q116.99 21.63 116.70 19.12Q116.60 19.12 116.55 19.09Q116.50 19.07 116.43 19.07L116.48 19.07M130.49 39.36Q130.40 39.70 129.98 39.70Q129.42 39.70 128.70 39.53Q127.98 39.36 127.20 39.36L126.39 39.36Q126.88 41.19 127.78 42.82Q128.69 44.46 130.08 45.85L130.30 46.00L130.30 46.26Q130.30 46.31 130.24 46.75Q130.18 47.19 129.85 47.84Q129.52 48.49 128.80 49.22Q128.08 49.95 126.78 50.56L126.39 50.76Q126.66 50.81 126.99 50.83Q127.32 50.85 127.69 50.85Q128.59 50.85 129.24 50.67Q129.88 50.49 130.32 50.26Q130.76 50.02 131.02 49.77Q131.27 49.51 131.40 49.37Q130.98 48.07 130.79 46.80Q130.59 45.53 130.59 44.26Q130.59 41.53 131.49 38.96Q131.08 37.74 130.88 36.51Q130.69 35.28 130.69 33.96Q130.69 31.45 131.45 28.71Q130.83 26.71 130.83 24.61Q130.83 21.95 131.74 19.31Q131.57 19.17 131.27 18.95Q130.98 18.73 130.57 18.53Q130.15 18.33 129.58 18.20Q129.00 18.07 128.30 18.07Q127.59 18.07 127.05 18.18Q126.51 18.29 126.10 18.46Q125.68 18.63 125.42 18.80Q125.15 18.97 125 19.12Q125.59 21.22 125.59 23.32Q125.59 25.76 124.83 27.95Q125.39 27.81 125.94 27.73Q126.49 27.66 126.98 27.66Q128.37 27.66 129.05 27.83Q129.74 28.00 130.00 28.21Q130.27 28.42 130.26 28.58Q130.25 28.74 130.25 28.71Q130.25 28.93 130.09 29.06Q129.93 29.20 129.74 29.20Q129.69 29.20 129.61 29.14Q129.54 29.08 129.31 29.00Q129.08 28.93 128.64 28.87Q128.20 28.81 127.44 28.81Q126.83 28.81 126.11 28.93Q125.39 29.05 124.63 29.35Q124.95 30.52 125.12 31.68Q125.29 32.84 125.29 34.01Q125.29 34.45 125.27 34.88Q125.24 35.30 125.20 35.77L125.73 36.35L125.93 36.69Q126.00 37.43 126.15 38.21Q126.78 38.21 127.54 38.27Q128.30 38.33 128.96 38.45Q129.61 38.57 130.05 38.77Q130.49 38.96 130.49 39.26L130.49 39.36ZM173.05 19.07L172.95 19.36Q172.51 20.73 172.25 22.02Q172.00 23.32 172.00 24.61Q172.00 25.59 172.16 26.55Q172.31 27.51 172.61 28.52L172.61 28.86Q171.85 31.45 171.85 33.91Q171.85 35.18 172.05 36.38Q172.24 37.57 172.66 38.75L172.66 39.16Q172.17 40.43 171.94 41.72Q171.70 43.02 171.70 44.31Q171.70 46.78 172.56 49.19L172.66 49.46L172.56 49.66Q172.53 49.71 172.29 50.09Q172.05 50.46 171.48 50.90Q170.92 51.34 169.97 51.70Q169.02 52.05 167.60 52.05Q166.43 52.05 165.60 51.82Q164.77 51.59 164.21 51.20L163.96 51.20Q163.31 51.20 162.79 51.06Q162.28 50.93 161.94 50.77Q161.60 50.61 161.41 50.45Q161.23 50.29 161.21 50.24L161.01 50.10L161.01 49.85Q160.89 47.36 159.99 45.09Q159.08 42.82 157.35 40.60L157.25 40.36Q156.96 38.70 156.43 37.23Q155.91 35.77 155.15 34.40Q155.20 35.55 155.38 36.62Q155.57 37.70 155.96 38.75L156.05 38.96L155.96 39.16Q155.49 40.41 155.27 41.66Q155.05 42.92 155.05 44.21Q155.05 45.48 155.25 46.72Q155.44 47.95 155.91 49.19L156.01 49.46L155.91 49.66Q155.88 49.71 155.64 50.09Q155.40 50.46 154.83 50.90Q154.27 51.34 153.31 51.70Q152.34 52.05 150.90 52.05Q149.46 52.05 148.52 51.67Q147.58 51.29 147.03 50.82Q146.48 50.34 146.26 49.95Q146.04 49.56 146.04 49.51L145.95 49.27L146.04 49.05Q146.61 47.71 146.88 46.29Q147.14 44.87 147.14 43.36Q147.14 42.33 147.03 41.30Q146.92 40.26 146.66 39.16L146.66 38.87Q146.95 37.65 147.13 36.46Q147.31 35.28 147.31 34.16Q147.31 32.84 147.09 31.59Q146.88 30.35 146.51 29.10L146.46 28.91L146.56 28.71Q147.61 26.03 147.61 23.36Q147.61 22.29 147.45 21.25Q147.29 20.21 146.95 19.12L146.85 18.80L147.05 18.55Q147.07 18.53 147.34 18.25Q147.61 17.97 148.16 17.64Q148.71 17.31 149.54 17.05Q150.37 16.80 151.51 16.80Q152.61 16.80 153.41 17.05Q154.20 17.31 154.76 17.65L155.15 17.65Q156.18 17.65 156.79 17.88Q157.40 18.12 157.45 18.16L157.76 18.31L157.81 18.60Q158.33 23.63 161.30 27.05L161.45 27.20L161.45 27.34Q162.08 31.35 163.96 34.25L163.96 34.20Q163.96 32.89 163.77 31.64Q163.57 30.40 163.21 29.10L163.21 28.71Q164.26 26.03 164.26 23.27Q164.26 21.17 163.65 19.12L163.55 18.80L163.75 18.55Q163.77 18.53 164.04 18.25Q164.31 17.97 164.86 17.64Q165.41 17.31 166.24 17.05Q167.07 16.80 168.21 16.80Q169.36 16.80 170.21 17.10Q171.07 17.41 171.66 17.77Q172.24 18.14 172.53 18.46Q172.83 18.77 172.85 18.80L173.05 19.07M155.00 19.31Q154.83 19.17 154.54 18.95Q154.25 18.73 153.81 18.53Q153.37 18.33 152.80 18.20Q152.22 18.07 151.51 18.07Q150.83 18.07 150.29 18.18Q149.76 18.29 149.35 18.46Q148.95 18.63 148.68 18.80Q148.41 18.97 148.27 19.12Q148.56 20.21 148.71 21.26Q148.85 22.31 148.85 23.41Q148.85 24.54 148.67 25.68Q148.49 26.83 148.10 27.95Q148.66 27.81 149.21 27.73Q149.76 27.66 150.24 27.66Q151.59 27.66 152.27 27.83Q152.95 28.00 153.22 28.20Q153.54 28.44 153.52 28.71Q153.52 28.93 153.36 29.06Q153.20 29.20 153.00 29.20Q152.95 29.20 152.87 29.14Q152.78 29.08 152.54 29.00Q152.29 28.93 151.86 28.87Q151.42 28.81 150.66 28.81Q150.05 28.81 149.34 28.93Q148.63 29.05 147.85 29.35Q148.19 30.52 148.38 31.69Q148.56 32.86 148.56 34.11Q148.56 35.13 148.43 36.19Q148.29 37.26 148.05 38.31Q148.44 38.26 148.83 38.23Q149.22 38.21 149.61 38.21Q150.17 38.21 150.89 38.27Q151.61 38.33 152.25 38.45Q152.88 38.57 153.32 38.76Q153.76 38.94 153.76 39.21Q153.76 39.40 153.60 39.55Q153.44 39.70 153.25 39.70Q152.69 39.70 151.93 39.53Q151.17 39.36 150.32 39.36Q149.76 39.36 149.13 39.39Q148.51 39.43 147.95 39.55Q148.19 40.58 148.28 41.55Q148.36 42.53 148.36 43.46Q148.36 44.97 148.10 46.42Q147.83 47.88 147.31 49.27Q147.41 49.44 147.64 49.71Q147.88 49.98 148.30 50.23Q148.73 50.49 149.37 50.67Q150 50.85 150.90 50.85Q151.81 50.85 152.47 50.67Q153.13 50.49 153.58 50.26Q154.03 50.02 154.28 49.77Q154.54 49.51 154.66 49.37Q153.81 46.75 153.81 44.31Q153.81 42.94 154.04 41.61Q154.27 40.28 154.76 38.96Q154.35 37.72 154.15 36.47Q153.96 35.23 153.96 33.91Q153.96 31.37 154.71 28.71Q154.10 26.71 154.10 24.61Q154.10 21.95 155.00 19.31M156.40 19.07L156.25 19.36Q155.81 20.73 155.58 22.00Q155.35 23.27 155.35 24.56Q155.35 25.59 155.48 26.55Q155.62 27.51 155.91 28.52L155.91 28.61Q156.47 28.37 156.97 28.23Q157.47 28.10 157.86 28.04Q158.25 27.98 158.48 27.97Q158.72 27.95 158.76 27.95Q158.96 27.95 159.11 28.11Q159.25 28.27 159.25 28.47Q159.25 28.66 159.11 28.81Q158.96 28.96 158.76 28.96Q158.72 28.96 158.44 28.99Q158.15 29.03 157.71 29.16Q157.28 29.30 156.71 29.54Q156.15 29.79 155.57 30.20Q155.44 30.74 155.36 31.25Q155.27 31.76 155.20 32.25Q156.35 33.79 157.10 35.53Q157.86 37.28 158.30 39.26Q158.86 38.89 159.55 38.56Q160.23 38.23 160.93 37.98Q161.62 37.72 162.27 37.56Q162.92 37.40 163.40 37.40Q163.60 37.40 163.73 37.52Q163.87 37.65 163.92 37.82Q163.92 38.04 163.79 38.20Q163.67 38.35 163.45 38.35Q162.48 38.50 161.18 39.06Q159.89 39.62 158.76 40.41Q160.38 42.60 161.22 44.84Q162.06 47.07 162.21 49.51Q162.40 49.66 162.84 49.83Q163.28 50 163.96 50Q165.38 50 166.33 49.49Q167.29 48.97 167.86 48.33Q168.43 47.68 168.68 47.13Q168.92 46.58 168.95 46.51Q165.19 42.43 164.65 37.01Q162.92 35.16 161.83 32.90Q160.74 30.64 160.25 27.76Q158.74 25.95 157.82 23.79Q156.91 21.63 156.62 19.12Q156.52 19.12 156.47 19.09Q156.42 19.07 156.35 19.07L156.40 19.07M170.41 39.36Q170.31 39.70 169.90 39.70Q169.34 39.70 168.62 39.53Q167.90 39.36 167.11 39.36L166.31 39.36Q166.80 41.19 167.70 42.82Q168.60 44.46 170.00 45.85L170.21 46.00L170.21 46.26Q170.21 46.31 170.15 46.75Q170.09 47.19 169.76 47.84Q169.43 48.49 168.71 49.22Q167.99 49.95 166.70 50.56L166.31 50.76Q166.58 50.81 166.91 50.83Q167.24 50.85 167.60 50.85Q168.51 50.85 169.15 50.67Q169.80 50.49 170.24 50.26Q170.68 50.02 170.94 49.77Q171.19 49.51 171.31 49.37Q170.90 48.07 170.70 46.80Q170.51 45.53 170.51 44.26Q170.51 41.53 171.41 38.96Q171.00 37.74 170.80 36.51Q170.61 35.28 170.61 33.96Q170.61 31.45 171.36 28.71Q170.75 26.71 170.75 24.61Q170.75 21.95 171.66 19.31Q171.48 19.17 171.19 18.95Q170.90 18.73 170.48 18.53Q170.07 18.33 169.49 18.20Q168.92 18.07 168.21 18.07Q167.50 18.07 166.97 18.18Q166.43 18.29 166.02 18.46Q165.60 18.63 165.33 18.80Q165.06 18.97 164.92 19.12Q165.50 21.22 165.50 23.32Q165.50 25.76 164.75 27.95Q165.31 27.81 165.86 27.73Q166.41 27.66 166.89 27.66Q168.29 27.66 168.97 27.83Q169.65 28.00 169.92 28.21Q170.19 28.42 170.18 28.58Q170.17 28.74 170.17 28.71Q170.17 28.93 170.01 29.06Q169.85 29.20 169.65 29.20Q169.60 29.20 169.53 29.14Q169.46 29.08 169.23 29.00Q168.99 28.93 168.55 28.87Q168.12 28.81 167.36 28.81Q166.75 28.81 166.03 28.93Q165.31 29.05 164.55 29.35Q164.87 30.52 165.04 31.68Q165.21 32.84 165.21 34.01Q165.21 34.45 165.19 34.88Q165.16 35.30 165.11 35.77L165.65 36.35L165.84 36.69Q165.92 37.43 166.06 38.21Q166.70 38.21 167.46 38.27Q168.21 38.33 168.87 38.45Q169.53 38.57 169.97 38.77Q170.41 38.96 170.41 39.26L170.41 39.36ZM186.96 29.57L186.91 29.71Q186.21 31.37 185.89 32.73Q185.57 34.08 185.57 35.40Q185.57 36.18 185.67 36.96Q185.77 37.74 185.96 38.60L186.01 38.79L185.91 39.01Q185.21 40.41 184.83 41.49Q184.45 42.58 184.38 43.75Q184.86 43.68 185.25 43.58Q185.64 43.48 186.02 43.35Q186.40 43.21 186.80 43.07Q187.21 42.92 187.72 42.75Q187.84 42.70 187.94 42.66Q188.04 42.63 188.16 42.55L188.35 42.46L188.57 42.50Q189.36 42.70 190.06 42.77Q190.77 42.85 191.46 42.85L192.41 42.85Q192.36 42.63 192.30 42.40Q192.24 42.16 192.16 41.89L192.16 41.50Q192.50 40.45 192.66 39.60Q192.82 38.75 192.82 37.92Q192.82 36.96 192.59 36.01Q192.36 35.06 191.87 33.81L191.77 33.50L191.92 33.25Q191.92 33.23 192.19 32.91Q192.46 32.59 193.03 32.21Q193.60 31.84 194.51 31.52Q195.41 31.20 196.66 31.20Q197.61 31.20 198.35 31.42Q199.10 31.64 199.61 31.92Q200.12 32.20 200.39 32.45Q200.66 32.69 200.71 32.71L200.90 32.91L200.81 33.20Q200.54 34.25 200.40 35.10Q200.27 35.94 200.27 36.69Q200.27 37.62 200.49 38.50Q200.71 39.38 201.17 40.50L201.17 40.84Q200.98 41.80 200.89 42.63Q200.81 43.46 200.81 44.17Q200.81 45.26 201.05 46.31Q201.29 47.36 201.86 48.66L201.95 48.85L201.90 49.10Q201.88 49.12 201.65 49.55Q201.42 49.98 200.82 50.49Q200.22 51.00 199.19 51.43Q198.17 51.86 196.56 51.86Q195.78 51.86 195.17 51.71Q194.56 51.56 194.10 51.35Q193.65 51.15 193.33 50.89Q193.02 50.63 192.82 50.42Q192.19 50.61 191.54 50.85Q190.89 51.10 190.21 51.42L190.01 51.51L189.87 51.46Q189.31 51.46 188.77 51.42Q188.23 51.37 187.72 51.37Q185.89 51.37 184.16 51.78Q182.42 52.20 180.76 53.05L180.52 53.15L180.32 53.10Q180.40 53.13 179.96 52.95Q179.52 52.78 178.93 52.33Q178.34 51.88 177.80 51.09Q177.25 50.29 177.12 49.05Q176.46 48.68 176.04 48.25Q175.61 47.83 175.35 47.46Q175.10 47.09 175 46.84Q174.90 46.58 174.90 46.56L174.85 46.31L174.95 46.09Q175.42 45.26 175.76 44.53Q176.10 43.80 176.32 43.10Q176.54 42.41 176.65 41.69Q176.76 40.97 176.76 40.11Q176.76 39.11 176.61 37.87L176.66 37.55Q177.29 36.01 177.60 34.69Q177.91 33.37 177.91 32.06Q177.91 31.30 177.81 30.51Q177.71 29.71 177.56 28.86L177.51 28.61L177.61 28.47Q178.17 27.37 178.54 26.45Q178.91 25.54 179.10 24.61Q178.74 24.12 178.48 23.30Q178.22 22.49 178.22 21.31Q178.22 19.75 178.63 18.76Q179.03 17.77 179.53 17.21Q180.03 16.65 180.44 16.46Q180.86 16.26 180.91 16.26L181.15 16.16L181.37 16.26Q182.64 16.89 183.94 17.18Q185.23 17.46 186.67 17.46Q187.26 17.46 188.04 17.44Q188.82 17.43 189.45 17.21L189.67 17.16L189.87 17.26Q191.31 17.90 192.49 18.23Q193.68 18.55 194.92 18.55Q195.68 18.55 196.45 18.44Q197.22 18.33 198.07 18.12L198.36 18.07L198.56 18.26Q198.58 18.29 198.83 18.53Q199.07 18.77 199.33 19.26Q199.58 19.75 199.80 20.50Q200.02 21.24 200.02 22.27L200.02 22.66Q199.95 23.75 199.62 24.57Q199.29 25.39 198.93 25.92Q198.56 26.44 198.25 26.71Q197.95 26.98 197.92 27.00L197.61 27.20L197.31 27.10Q195.87 26.49 194.74 26.20Q193.60 25.90 192.46 25.90Q191.77 25.90 191.09 26.00Q190.41 26.10 189.62 26.29L189.26 26.25Q188.55 26.12 187.96 25.96Q187.38 25.81 186.77 25.66Q186.72 26.03 186.72 26.37Q186.72 26.71 186.72 27.05Q186.72 27.59 186.78 28.15Q186.84 28.71 186.96 29.35L186.96 29.57M184.06 25.24Q182.42 25.24 180.71 25.76L180.47 25.81L180.27 25.71L180.20 25.71Q180.15 25.71 180.10 25.66Q179.96 26.20 179.75 26.75Q179.54 27.29 179.27 27.91Q179.61 27.86 179.93 27.83Q180.25 27.81 180.57 27.81Q181.37 27.81 182.04 27.95Q182.71 28.10 183.20 28.27Q183.69 28.44 183.97 28.59Q184.25 28.74 184.30 28.76Q184.52 28.88 184.52 29.20Q184.52 29.39 184.38 29.55Q184.23 29.71 184.01 29.71Q183.96 29.71 183.84 29.60Q183.72 29.49 183.40 29.36Q183.08 29.22 182.48 29.11Q181.88 29.00 180.86 29.00Q180.42 29.00 179.91 29.05Q179.39 29.10 178.86 29.25Q178.98 30.03 179.04 30.73Q179.10 31.42 179.10 32.10Q179.10 33.35 178.87 34.56Q178.64 35.77 178.13 37.21Q178.86 37.21 179.83 37.33Q180.81 37.45 181.67 37.66Q182.52 37.87 183.12 38.15Q183.72 38.43 183.72 38.75Q183.72 38.94 183.56 39.07Q183.40 39.21 183.20 39.21Q183.15 39.21 183.11 39.21Q183.06 39.21 183.01 39.16Q182.18 38.82 180.97 38.61Q179.76 38.40 178.56 38.40L177.91 38.40Q177.95 38.89 177.98 39.34Q178.00 39.79 178.00 40.21Q178.00 41.14 177.89 41.89Q177.78 42.65 177.55 43.38Q177.32 44.12 176.98 44.86Q176.64 45.61 176.17 46.46Q176.27 46.66 176.51 47.00Q176.76 47.34 177.26 47.67Q177.76 48.00 178.55 48.25Q179.35 48.51 180.52 48.51Q181.18 48.51 181.67 48.39Q182.15 48.27 182.52 48.10Q182.89 47.92 183.13 47.73Q183.37 47.53 183.52 47.41Q183.33 46.51 183.22 45.75Q183.11 45.00 183.11 44.31Q183.11 42.90 183.52 41.58Q183.94 40.26 184.72 38.65Q184.52 37.79 184.41 36.99Q184.30 36.18 184.30 35.40Q184.30 34.01 184.66 32.58Q185.01 31.15 185.72 29.39Q185.60 28.74 185.56 28.10Q185.52 27.47 185.52 26.90Q185.52 26.54 185.53 26.16Q185.55 25.78 185.62 25.42Q185.23 25.34 184.85 25.29Q184.47 25.24 184.06 25.24M198.85 22.61Q198.85 21.22 198.55 20.46Q198.24 19.70 198.02 19.36Q197.17 19.56 196.42 19.65Q195.68 19.75 194.97 19.75Q193.87 19.75 192.83 19.51Q191.80 19.26 190.50 18.80Q190.63 19.26 190.67 19.68Q190.72 20.09 190.72 20.51Q190.72 21.92 190.52 22.63Q190.31 23.34 190.08 23.63Q189.84 23.93 189.65 23.94Q189.45 23.95 189.50 23.95Q189.31 23.95 189.18 23.80Q189.06 23.66 189.06 23.51Q189.06 23.46 189.14 23.36Q189.21 23.27 189.31 23.00Q189.40 22.73 189.48 22.23Q189.55 21.73 189.55 20.85Q189.55 20.34 189.47 19.74Q189.38 19.14 189.16 18.51Q188.55 18.51 187.96 18.58Q187.38 18.65 186.82 18.65Q185.30 18.65 183.90 18.37Q182.50 18.09 181.10 17.46Q180.91 17.58 180.63 17.81Q180.35 18.04 180.08 18.48Q179.81 18.92 179.61 19.60Q179.42 20.29 179.42 21.31Q179.42 22.09 179.55 22.66Q179.69 23.22 179.90 23.60Q180.10 23.97 180.31 24.22Q180.52 24.46 180.66 24.56Q181.52 24.34 182.32 24.22Q183.13 24.10 183.96 24.10Q185.25 24.10 186.72 24.34Q188.18 24.58 189.45 25.10Q190.23 24.90 190.94 24.83Q191.65 24.76 192.36 24.76Q193.58 24.76 194.79 25.02Q196.00 25.29 197.46 25.85Q197.61 25.71 197.83 25.44Q198.05 25.17 198.27 24.77Q198.49 24.37 198.65 23.83Q198.80 23.29 198.85 22.61M200.66 48.90Q200.10 47.53 199.85 46.46Q199.61 45.39 199.61 44.21Q199.61 43.46 199.68 42.64Q199.76 41.82 199.95 40.80Q199.51 39.62 199.32 38.71Q199.12 37.79 199.12 36.82Q199.12 36.06 199.23 35.22Q199.34 34.38 199.61 33.30Q199.27 33.08 198.56 32.71Q197.85 32.35 196.75 32.35Q195.97 32.35 195.35 32.51Q194.73 32.67 194.26 32.87Q193.80 33.08 193.51 33.30Q193.21 33.52 193.07 33.67Q193.53 34.89 193.75 35.80Q193.97 36.72 193.97 37.65Q193.97 38.33 193.86 39.06Q193.75 39.79 193.55 40.70Q194.34 40.41 195.04 40.28Q195.75 40.16 196.36 40.16Q197.39 40.16 197.90 40.26Q198.41 40.36 198.62 40.50Q198.83 40.65 198.82 40.80Q198.80 40.94 198.80 41.02Q198.80 41.24 198.66 41.32Q198.51 41.41 198.32 41.41Q198.29 41.41 198.24 41.38Q198.19 41.36 198.02 41.32Q197.85 41.28 197.55 41.25Q197.24 41.21 196.70 41.21Q196.07 41.21 195.24 41.38Q194.41 41.55 193.51 42.02Q193.51 42.09 193.53 42.14Q193.55 42.19 193.55 42.26Q193.82 43.38 193.97 44.31Q194.12 45.24 194.12 46.09Q194.12 46.88 193.99 47.69Q193.87 48.51 193.60 49.46Q193.70 49.58 193.92 49.80Q194.14 50.02 194.49 50.22Q194.85 50.42 195.37 50.56Q195.90 50.71 196.61 50.71Q197.66 50.71 198.39 50.49Q199.12 50.27 199.60 49.96Q200.07 49.66 200.32 49.35Q200.56 49.05 200.66 48.90M192.97 46.22Q192.97 45.73 192.91 45.17Q192.85 44.60 192.72 43.99Q192.46 44.04 192.16 44.06Q191.87 44.07 191.55 44.07Q191.11 44.07 190.61 44.02Q190.11 43.97 189.55 43.90Q189.97 44.75 190.11 45.56Q190.26 46.36 190.26 47.00Q190.26 47.88 190.19 48.33Q190.11 48.78 190.01 48.96Q189.92 49.15 189.81 49.15Q189.70 49.15 189.62 49.15Q189.38 49.15 189.22 49.02Q189.06 48.90 189.06 48.71Q189.06 48.66 189.09 48.62Q189.11 48.58 189.14 48.49Q189.16 48.39 189.18 48.17Q189.21 47.95 189.21 47.51Q189.21 46.83 189.00 45.87Q188.79 44.92 188.16 43.90Q188.09 43.90 188.04 43.92Q187.99 43.95 187.92 43.99Q187.40 44.14 186.98 44.29Q186.55 44.43 186.15 44.57Q185.74 44.70 185.31 44.80Q184.89 44.90 184.38 44.95Q184.42 45.51 184.52 46.13Q184.62 46.75 184.77 47.46L184.81 47.66L184.67 47.90Q184.64 47.92 184.42 48.22Q184.20 48.51 183.72 48.85Q183.23 49.19 182.45 49.48Q181.67 49.76 180.57 49.76Q180.00 49.76 179.52 49.72Q179.03 49.68 178.61 49.56Q178.78 50.15 179.03 50.55Q179.27 50.95 179.53 51.23Q179.79 51.51 180.03 51.67Q180.27 51.83 180.42 51.90Q182.18 51.00 183.97 50.57Q185.77 50.15 187.67 50.15Q188.23 50.15 188.76 50.20Q189.28 50.24 189.82 50.24Q190.50 49.95 191.14 49.73Q191.77 49.51 192.41 49.37Q192.68 48.44 192.82 47.71Q192.97 46.97 192.97 46.22ZM236.57 33.86L236.52 34.16L236.23 34.30Q231.76 36.62 229.54 40.55L229.32 40.80Q228.39 41.36 227.42 42.08Q226.44 42.80 225.54 43.65Q226.56 43.97 227.44 44.09Q228.32 44.21 229.22 44.21Q230.20 44.21 231.21 44.02Q232.23 43.82 233.42 43.46L233.74 43.36L234.03 43.55Q234.06 43.58 234.34 43.82Q234.62 44.07 234.96 44.58Q235.30 45.09 235.60 45.90Q235.89 46.70 235.94 47.80Q235.94 48.93 235.66 49.76Q235.38 50.59 235.02 51.15Q234.67 51.71 234.35 52.00Q234.03 52.29 233.98 52.34L233.74 52.56L233.37 52.47Q232.06 52.08 231.03 51.89Q230.00 51.71 229.08 51.71Q228.15 51.71 227.23 51.86Q226.32 52.00 225.17 52.34L224.83 52.34Q223.36 52.12 222.36 51.92Q221.36 51.71 220.39 51.71Q219.56 51.71 218.69 51.87Q217.82 52.03 216.72 52.42L216.48 52.51L216.28 52.42Q216.24 52.39 215.81 52.17Q215.38 51.95 214.89 51.43Q214.40 50.90 214.01 50Q213.62 49.10 213.62 47.71Q213.62 46.41 214.06 45.54Q214.50 44.68 215.04 44.12Q214.92 43.77 214.89 43.49Q214.87 43.21 214.87 42.94Q214.87 42.36 214.98 42.00Q215.09 41.65 215.14 41.60L215.23 41.36L215.48 41.26Q216.43 40.84 217.40 40.17Q218.36 39.50 219.25 38.68Q220.14 37.87 220.96 36.93Q221.78 35.99 222.44 35.06Q222.51 34.94 222.57 34.85Q222.63 34.77 222.68 34.64L222.78 34.45L222.97 34.35Q224.58 33.59 225.90 32.62Q227.22 31.64 228.32 30.35Q227.42 29.15 226.32 28.04Q225.22 26.93 224.07 26.10Q222.63 27.34 221.45 28.78Q220.26 30.22 219.58 31.49L219.48 31.71L219.24 31.81Q219.19 31.86 218.84 31.96Q218.48 32.06 217.92 32.06Q217.26 32.06 216.33 31.75Q215.41 31.45 214.43 30.44Q213.50 29.54 213.20 28.69Q212.89 27.83 212.89 27.15Q212.89 26.51 213.01 26.11Q213.13 25.71 213.18 25.66L213.28 25.46L213.48 25.37Q214.43 24.90 215.58 24.08Q216.72 23.27 217.85 22.27Q218.97 21.26 219.96 20.13Q220.95 18.99 221.58 17.90L221.78 17.60L222.07 17.55Q222.12 17.55 222.22 17.53Q222.29 17.53 222.38 17.52Q222.46 17.50 222.58 17.50Q223.00 17.50 223.72 17.68Q224.44 17.85 225.27 18.41Q226.46 17.94 227.22 17.94Q227.86 17.94 228.27 18.10Q228.69 18.26 228.74 18.26L228.93 18.36L229.03 18.55Q229.44 19.53 230.21 20.72Q230.98 21.90 231.96 23.05Q232.93 24.19 234.06 25.21Q235.18 26.22 236.28 26.86L236.52 27.00L236.57 27.29L236.57 27.66Q236.57 28.08 236.43 28.81Q236.28 29.54 235.67 30.44Q236.23 31.40 236.40 32.21Q236.57 33.03 236.57 33.45L236.57 33.86M230.88 33.15Q230.76 33.15 230.66 33.15Q230.57 33.15 230.49 33.13Q230.40 33.13 230.32 33.11L230.03 33.06L229.88 32.76Q229.69 32.42 229.49 32.06Q229.30 31.69 229.03 31.35Q228.13 32.45 226.99 33.33Q225.85 34.20 224.58 34.91Q225.51 35.40 226.14 36.01Q226.76 36.62 227.15 37.17Q227.54 37.72 227.70 38.12Q227.86 38.53 227.88 38.55Q227.88 38.60 227.91 38.62Q227.93 38.65 227.93 38.70Q227.93 38.89 227.77 39.05Q227.61 39.21 227.37 39.21Q227.05 39.21 226.94 38.88Q226.83 38.55 226.54 38.04Q226.25 37.52 225.57 36.90Q224.90 36.28 223.44 35.69L223.34 35.91Q222.63 36.84 221.80 37.78Q220.97 38.72 220.04 39.56Q219.12 40.41 218.14 41.11Q217.16 41.82 216.19 42.26Q216.14 42.38 216.11 42.53Q216.09 42.68 216.09 42.90Q216.09 43.43 216.36 44.21Q216.63 45.00 217.53 45.85Q218.46 46.78 219.27 47.07Q220.09 47.36 220.63 47.36Q220.83 47.36 220.94 47.36Q221.04 47.36 221.17 47.31Q221.75 46.17 222.61 45.08Q223.46 43.99 224.46 43.03Q225.46 42.07 226.53 41.26Q227.59 40.45 228.59 39.84Q230.91 35.79 235.38 33.40Q235.38 33.11 235.28 32.58Q235.18 32.06 234.84 31.45Q234.28 32.01 233.70 32.34Q233.13 32.67 232.62 32.85Q232.10 33.03 231.65 33.09Q231.20 33.15 230.88 33.15M222.02 48.32L221.78 48.41Q221.73 48.41 221.45 48.49Q221.17 48.56 220.63 48.56Q219.92 48.56 218.88 48.22Q217.85 47.88 216.67 46.70Q216.31 46.36 216.03 46.01Q215.75 45.65 215.53 45.31Q215.26 45.73 215.06 46.31Q214.87 46.90 214.87 47.66Q214.87 48.54 215.06 49.17Q215.26 49.80 215.54 50.22Q215.82 50.63 216.10 50.87Q216.38 51.10 216.58 51.20Q217.68 50.83 218.54 50.67Q219.41 50.51 220.24 50.51Q221.14 50.51 222.41 50.65Q223.68 50.78 224.93 51.20Q226.07 50.85 227.06 50.68Q228.05 50.51 229.03 50.51Q230.00 50.51 231.05 50.68Q232.10 50.85 233.42 51.20Q233.57 51.05 233.76 50.78Q233.96 50.51 234.16 50.12Q234.35 49.73 234.48 49.23Q234.62 48.73 234.62 48.10Q234.62 47.36 234.50 46.80Q234.38 46.24 234.19 45.83Q234.01 45.41 233.81 45.12Q233.62 44.82 233.47 44.65Q232.23 45.04 231.21 45.20Q230.20 45.36 229.22 45.36Q228.37 45.36 227.48 45.24Q226.59 45.12 225.49 44.80Q225.71 45.43 225.79 46.01Q225.88 46.58 225.88 47.09Q225.88 48.32 225.73 48.94Q225.59 49.56 225.40 49.80Q225.22 50.05 225.06 50.05Q224.90 50.05 224.88 50.05Q224.66 50.05 224.52 49.90Q224.39 49.76 224.39 49.56Q224.39 49.51 224.44 49.44Q224.49 49.37 224.56 49.16Q224.63 48.95 224.68 48.57Q224.73 48.19 224.73 47.51Q224.73 46.97 224.63 46.33Q224.54 45.68 224.22 45.00Q223.58 45.70 223.06 46.48Q222.53 47.27 222.12 48.05L222.02 48.32M226.49 22.75Q226.49 22.29 226.23 21.51Q225.98 20.73 225.22 19.95Q224.78 19.51 224.37 19.25Q223.95 18.99 223.57 18.86Q223.19 18.73 222.89 18.69Q222.58 18.65 222.39 18.65Q221.80 19.68 220.80 20.80Q219.80 21.92 218.63 22.97Q217.46 24.02 216.27 24.89Q215.09 25.76 214.14 26.25Q214.09 26.37 214.06 26.55Q214.04 26.73 214.04 27.00Q214.04 27.71 214.45 28.41Q214.87 29.10 215.47 29.65Q216.06 30.20 216.76 30.55Q217.46 30.91 218.02 30.91Q218.26 30.91 218.43 30.88Q218.60 30.86 218.73 30.81Q219.24 29.81 220.12 28.70Q221.00 27.59 222.05 26.53Q223.10 25.46 224.24 24.52Q225.39 23.58 226.49 22.95L226.49 22.75M227.64 23.32L227.59 23.66L227.27 23.80Q226.17 24.39 225.02 25.32Q225.85 25.98 226.68 26.78Q227.51 27.59 228.26 28.45Q229.00 29.32 229.65 30.22Q230.30 31.13 230.74 31.96Q230.96 31.96 231.31 31.92Q231.67 31.88 232.09 31.75Q232.52 31.62 233.01 31.35Q233.50 31.08 233.98 30.62Q234.42 30.15 234.70 29.71Q234.99 29.27 235.13 28.88Q235.28 28.49 235.34 28.17Q235.40 27.86 235.42 27.66Q234.42 27.05 233.31 26.03Q232.20 25 231.18 23.82Q230.15 22.63 229.31 21.42Q228.47 20.21 228.03 19.21Q227.91 19.17 227.73 19.14Q227.56 19.12 227.32 19.12Q226.83 19.12 226.27 19.31Q226.73 19.80 227.00 20.30Q227.27 20.80 227.42 21.26Q227.56 21.73 227.60 22.12Q227.64 22.51 227.64 22.80L227.64 23.32ZM270.34 33.81Q270.34 33.86 270.36 34.06Q270.39 34.25 270.39 34.59Q270.39 34.96 270.31 35.42Q270.24 35.89 270.01 36.43Q269.78 36.96 269.35 37.56Q268.92 38.16 268.24 38.75Q267.36 39.45 266.59 39.79Q265.82 40.14 265.23 40.21Q264.53 40.99 263.94 41.86Q263.35 42.72 262.87 43.70L262.67 43.95Q261.74 44.31 260.73 45.18Q259.72 46.04 258.78 47.13Q257.84 48.22 257.07 49.39Q256.30 50.56 255.88 51.56L255.79 51.81L255.52 51.90Q255.47 51.95 255.13 52.05Q254.79 52.15 254.17 52.15Q253.47 52.15 252.48 51.83Q251.49 51.51 250.37 50.51Q249.66 49.90 249.26 49.29Q248.85 48.68 248.63 48.14Q247.88 47.51 247.08 47.00Q246.29 46.48 245.53 45.95L245.34 45.90L245.21 45.70Q244.02 43.43 242.30 41.80Q240.58 40.16 238.23 39.11L237.96 38.96L237.87 38.65Q237.84 38.60 237.84 38.50Q237.82 38.40 237.82 38.11Q237.82 37.79 237.88 37.33Q237.94 36.87 238.18 36.25Q237.50 35.47 237.34 34.74Q237.18 34.01 237.18 33.54Q237.18 33.33 237.21 33.19Q237.23 33.06 237.23 33.01L237.28 32.76L237.48 32.67Q238.31 32.03 239.15 31.09Q239.99 30.15 240.72 29.08Q241.46 28.00 242.05 26.83Q242.65 25.66 243.02 24.56L243.24 24.19Q245.31 22.66 246.63 20.68Q247.95 18.70 248.63 16.26L248.73 15.97L249.02 15.80Q249.07 15.80 249.43 15.70Q249.78 15.60 250.37 15.60Q251.25 15.60 251.97 15.80Q252.69 15.99 253.25 16.31Q253.81 16.63 254.25 17.04Q254.69 17.46 255.03 17.90Q255.69 17.75 256.23 17.75Q256.59 17.75 256.81 17.77Q257.03 17.80 257.08 17.80L257.37 17.90L257.52 18.21Q258.45 20.56 259.85 22.33Q261.25 24.10 263.18 25.42L263.43 25.66Q263.94 26.73 264.64 27.83Q265.33 28.93 266.16 29.96Q266.99 30.98 267.96 31.88Q268.92 32.79 270.02 33.45L270.21 33.54L270.34 33.81M256.42 21.00L256.13 21.22Q255.22 21.97 254.48 22.77Q253.74 23.56 253.13 24.41Q254.44 25.54 255.42 26.90Q256.40 28.27 257.08 29.86Q257.62 28.98 258.28 28.41Q258.94 27.83 259.55 27.48Q260.16 27.12 260.60 26.99Q261.04 26.86 261.13 26.86Q261.33 26.86 261.47 26.99Q261.62 27.12 261.62 27.34Q261.62 27.73 261.28 27.81Q261.25 27.83 260.89 27.99Q260.52 28.15 259.99 28.53Q259.45 28.91 258.86 29.53Q258.28 30.15 257.84 31.05Q258.72 31.93 259.59 32.85Q260.47 33.76 261.25 34.73Q262.04 35.69 262.67 36.73Q263.31 37.77 263.72 38.87Q263.84 38.94 264.07 38.98Q264.31 39.01 264.58 39.01Q265.60 39.01 266.44 38.48Q267.29 37.94 267.88 37.21Q268.48 36.47 268.82 35.74Q269.17 35.01 269.17 34.64L269.17 34.30Q268.04 33.59 267.08 32.64Q266.11 31.69 265.27 30.63Q264.43 29.57 263.71 28.45Q262.99 27.34 262.38 26.29Q260.45 24.95 259.00 23.12Q257.54 21.29 256.52 18.95Q256.37 18.95 256.19 18.95Q256.01 18.95 255.74 18.99Q256.08 19.68 256.23 20.19Q256.37 20.70 256.37 20.65L256.42 21.00M256.47 31.62L256.42 31.40Q255.79 29.59 254.81 28.10Q253.83 26.61 252.47 25.42Q252.03 26.20 251.66 27.05Q251.29 27.91 251.03 28.81L250.88 29.10Q250.22 29.57 249.57 30.26Q248.93 30.96 248.34 31.79Q247.75 32.62 247.23 33.51Q246.70 34.40 246.31 35.25Q248.36 37.52 251.03 38.75L251.27 38.96Q251.73 39.55 252.20 40.21Q252.66 40.87 253.27 41.50Q253.88 40.80 254.43 40.05Q254.98 39.31 255.47 38.55Q255.54 38.43 255.58 38.33Q255.62 38.23 255.66 38.11L255.79 37.92L255.98 37.82Q258.33 36.67 259.99 34.86Q259.23 33.91 258.39 33.09Q257.54 32.28 256.67 31.71L256.47 31.62M249.27 28.96Q249.44 28.81 249.61 28.65Q249.78 28.49 249.93 28.30Q250.61 26.07 251.90 24.12Q253.20 22.17 255.13 20.51Q255.03 20.14 254.68 19.53Q254.32 18.92 253.70 18.32Q253.08 17.72 252.22 17.29Q251.37 16.85 250.27 16.85Q250.07 16.85 249.94 16.87Q249.80 16.89 249.68 16.89Q248.34 21.39 244.92 24.37Q245.95 24.63 246.69 25.09Q247.44 25.54 247.94 26.00Q248.44 26.46 248.69 26.82Q248.95 27.17 248.97 27.20Q249.02 27.25 249.02 27.47Q249.02 27.66 248.89 27.81Q248.75 27.95 248.54 27.95Q248.24 27.95 248.17 27.76Q248.14 27.73 247.88 27.42Q247.61 27.10 247.09 26.72Q246.58 26.34 245.81 25.98Q245.04 25.61 244.02 25.46L243.92 25.66Q243.46 26.73 242.86 27.83Q242.26 28.93 241.55 29.96Q240.84 30.98 240.04 31.88Q239.23 32.79 238.38 33.45Q238.38 33.69 238.43 34.11Q238.48 34.52 238.82 35.06Q238.94 34.86 239.09 34.67Q239.23 34.47 239.43 34.25Q240.11 33.45 240.87 33.02Q241.63 32.59 242.25 32.40Q242.87 32.20 243.31 32.18Q243.75 32.15 243.82 32.15L244.17 32.20L244.34 32.50Q244.87 33.54 245.53 34.30Q246.29 32.79 247.25 31.42Q248.22 30.05 249.27 28.96M262.77 39.70L262.67 39.45Q262.38 38.62 261.87 37.68Q261.35 36.74 260.72 35.82Q260.03 36.52 259.25 37.15Q258.47 37.77 257.57 38.26Q258.54 38.70 259.22 39.29Q259.89 39.89 260.30 40.42Q260.72 40.94 260.90 41.33Q261.08 41.72 261.08 41.75Q261.13 41.85 261.13 41.94Q261.13 42.11 260.97 42.29Q260.82 42.46 260.62 42.46Q260.50 42.46 260.39 42.38Q260.28 42.31 260.23 42.16Q260.21 42.14 260.00 41.78Q259.79 41.43 259.34 40.95Q258.89 40.48 258.19 39.98Q257.50 39.48 256.52 39.16Q256.01 40.16 255.21 41.19Q254.42 42.21 253.49 43.14Q252.56 44.07 251.55 44.84Q250.54 45.61 249.63 46.09Q249.58 46.19 249.58 46.33Q249.58 46.46 249.58 46.61Q249.58 47.14 249.88 47.92Q250.17 48.71 251.17 49.61Q252.08 50.44 252.86 50.70Q253.64 50.95 254.17 50.95Q254.39 50.95 254.58 50.93Q254.76 50.90 254.88 50.85Q255.42 49.63 256.21 48.55Q257.01 47.46 257.95 46.48Q258.89 45.51 259.89 44.64Q260.89 43.77 261.87 43.02Q262.26 42.26 262.73 41.53Q263.21 40.80 263.72 40.11Q263.38 40.04 263.17 39.94Q262.96 39.84 262.96 39.79L262.77 39.70M248.63 45.26L248.88 45.17Q249.78 44.68 250.68 43.97Q251.59 43.26 252.42 42.41Q251.83 41.72 251.34 41.08Q250.85 40.43 250.37 39.75Q246.19 37.72 243.48 33.40Q243.26 33.40 242.90 33.47Q242.53 33.54 242.10 33.73Q241.67 33.91 241.22 34.23Q240.77 34.55 240.33 35.06Q239.48 36.06 239.25 36.90Q239.01 37.74 239.01 38.16Q241.16 39.21 242.80 40.65Q244.43 42.09 245.68 44.07Q246.09 43.12 246.67 42.44Q247.24 41.77 247.77 41.35Q248.29 40.92 248.67 40.73Q249.05 40.55 249.07 40.55Q249.12 40.55 249.17 40.53Q249.22 40.50 249.27 40.50Q249.46 40.50 249.62 40.66Q249.78 40.82 249.78 41.06Q249.78 41.33 249.54 41.41Q249.49 41.43 249.15 41.65Q248.80 41.87 248.34 42.32Q247.88 42.77 247.39 43.48Q246.90 44.19 246.58 45.17Q246.88 45.51 247.40 45.79Q247.92 46.07 248.36 46.41Q248.36 46.00 248.45 45.75Q248.54 45.51 248.58 45.46L248.63 45.26ZM294.07 33.86L294.02 34.16L293.73 34.30Q289.26 36.62 287.04 40.55L286.82 40.80Q285.89 41.36 284.91 42.08Q283.94 42.80 283.03 43.65Q284.06 43.97 284.94 44.09Q285.82 44.21 286.72 44.21Q287.70 44.21 288.71 44.02Q289.72 43.82 290.92 43.46L291.24 43.36L291.53 43.55Q291.55 43.58 291.83 43.82Q292.11 44.07 292.46 44.58Q292.80 45.09 293.09 45.90Q293.38 46.70 293.43 47.80Q293.43 48.93 293.15 49.76Q292.87 50.59 292.52 51.15Q292.16 51.71 291.85 52.00Q291.53 52.29 291.48 52.34L291.24 52.56L290.87 52.47Q289.55 52.08 288.53 51.89Q287.50 51.71 286.57 51.71Q285.64 51.71 284.73 51.86Q283.81 52.00 282.67 52.34L282.32 52.34Q280.86 52.12 279.86 51.92Q278.86 51.71 277.88 51.71Q277.05 51.71 276.18 51.87Q275.32 52.03 274.22 52.42L273.97 52.51L273.78 52.42Q273.73 52.39 273.30 52.17Q272.88 51.95 272.39 51.43Q271.90 50.90 271.51 50Q271.12 49.10 271.12 47.71Q271.12 46.41 271.56 45.54Q272.00 44.68 272.53 44.12Q272.41 43.77 272.39 43.49Q272.36 43.21 272.36 42.94Q272.36 42.36 272.47 42.00Q272.58 41.65 272.63 41.60L272.73 41.36L272.97 41.26Q273.93 40.84 274.89 40.17Q275.85 39.50 276.75 38.68Q277.64 37.87 278.45 36.93Q279.27 35.99 279.93 35.06Q280.00 34.94 280.07 34.85Q280.13 34.77 280.18 34.64L280.27 34.45L280.47 34.35Q282.08 33.59 283.40 32.62Q284.72 31.64 285.82 30.35Q284.91 29.15 283.81 28.04Q282.71 26.93 281.57 26.10Q280.13 27.34 278.94 28.78Q277.76 30.22 277.08 31.49L276.98 31.71L276.73 31.81Q276.68 31.86 276.33 31.96Q275.98 32.06 275.42 32.06Q274.76 32.06 273.83 31.75Q272.90 31.45 271.92 30.44Q271.00 29.54 270.69 28.69Q270.39 27.83 270.39 27.15Q270.39 26.51 270.51 26.11Q270.63 25.71 270.68 25.66L270.78 25.46L270.97 25.37Q271.92 24.90 273.07 24.08Q274.22 23.27 275.34 22.27Q276.46 21.26 277.45 20.13Q278.44 18.99 279.08 17.90L279.27 17.60L279.57 17.55Q279.61 17.55 279.71 17.53Q279.79 17.53 279.87 17.52Q279.96 17.50 280.08 17.50Q280.49 17.50 281.21 17.68Q281.93 17.85 282.76 18.41Q283.96 17.94 284.72 17.94Q285.35 17.94 285.77 18.10Q286.18 18.26 286.23 18.26L286.43 18.36L286.52 18.55Q286.94 19.53 287.71 20.72Q288.48 21.90 289.45 23.05Q290.43 24.19 291.55 25.21Q292.68 26.22 293.77 26.86L294.02 27.00L294.07 27.29L294.07 27.66Q294.07 28.08 293.92 28.81Q293.77 29.54 293.16 30.44Q293.73 31.40 293.90 32.21Q294.07 33.03 294.07 33.45L294.07 33.86M288.38 33.15Q288.26 33.15 288.16 33.15Q288.06 33.15 287.99 33.13Q287.89 33.13 287.82 33.11L287.52 33.06L287.38 32.76Q287.18 32.42 286.99 32.06Q286.79 31.69 286.52 31.35Q285.62 32.45 284.48 33.33Q283.35 34.20 282.08 34.91Q283.01 35.40 283.63 36.01Q284.25 36.62 284.64 37.17Q285.03 37.72 285.19 38.12Q285.35 38.53 285.38 38.55Q285.38 38.60 285.40 38.62Q285.42 38.65 285.42 38.70Q285.42 38.89 285.27 39.05Q285.11 39.21 284.86 39.21Q284.55 39.21 284.44 38.88Q284.33 38.55 284.03 38.04Q283.74 37.52 283.07 36.90Q282.40 36.28 280.93 35.69L280.83 35.91Q280.13 36.84 279.30 37.78Q278.47 38.72 277.54 39.56Q276.61 40.41 275.63 41.11Q274.66 41.82 273.68 42.26Q273.63 42.38 273.61 42.53Q273.58 42.68 273.58 42.90Q273.58 43.43 273.85 44.21Q274.12 45.00 275.02 45.85Q275.95 46.78 276.77 47.07Q277.59 47.36 278.13 47.36Q278.32 47.36 278.43 47.36Q278.54 47.36 278.66 47.31Q279.25 46.17 280.10 45.08Q280.96 43.99 281.96 43.03Q282.96 42.07 284.02 41.26Q285.08 40.45 286.08 39.84Q288.40 35.79 292.87 33.40Q292.87 33.11 292.77 32.58Q292.68 32.06 292.33 31.45Q291.77 32.01 291.20 32.34Q290.63 32.67 290.11 32.85Q289.60 33.03 289.15 33.09Q288.70 33.15 288.38 33.15M279.52 48.32L279.27 48.41Q279.22 48.41 278.94 48.49Q278.66 48.56 278.13 48.56Q277.42 48.56 276.38 48.22Q275.34 47.88 274.17 46.70Q273.80 46.36 273.52 46.01Q273.24 45.65 273.02 45.31Q272.75 45.73 272.56 46.31Q272.36 46.90 272.36 47.66Q272.36 48.54 272.56 49.17Q272.75 49.80 273.03 50.22Q273.32 50.63 273.60 50.87Q273.88 51.10 274.07 51.20Q275.17 50.83 276.04 50.67Q276.90 50.51 277.73 50.51Q278.64 50.51 279.91 50.65Q281.18 50.78 282.42 51.20Q283.57 50.85 284.56 50.68Q285.55 50.51 286.52 50.51Q287.50 50.51 288.55 50.68Q289.60 50.85 290.92 51.20Q291.06 51.05 291.26 50.78Q291.46 50.51 291.65 50.12Q291.85 49.73 291.98 49.23Q292.11 48.73 292.11 48.10Q292.11 47.36 291.99 46.80Q291.87 46.24 291.69 45.83Q291.50 45.41 291.31 45.12Q291.11 44.82 290.97 44.65Q289.72 45.04 288.71 45.20Q287.70 45.36 286.72 45.36Q285.86 45.36 284.97 45.24Q284.08 45.12 282.98 44.80Q283.20 45.43 283.29 46.01Q283.37 46.58 283.37 47.09Q283.37 48.32 283.23 48.94Q283.08 49.56 282.90 49.80Q282.71 50.05 282.56 50.05Q282.40 50.05 282.37 50.05Q282.15 50.05 282.02 49.90Q281.88 49.76 281.88 49.56Q281.88 49.51 281.93 49.44Q281.98 49.37 282.06 49.16Q282.13 48.95 282.18 48.57Q282.23 48.19 282.23 47.51Q282.23 46.97 282.13 46.33Q282.03 45.68 281.71 45.00Q281.08 45.70 280.55 46.48Q280.03 47.27 279.61 48.05L279.52 48.32M283.98 22.75Q283.98 22.29 283.73 21.51Q283.47 20.73 282.71 19.95Q282.28 19.51 281.86 19.25Q281.45 18.99 281.07 18.86Q280.69 18.73 280.38 18.69Q280.08 18.65 279.88 18.65Q279.30 19.68 278.30 20.80Q277.29 21.92 276.12 22.97Q274.95 24.02 273.77 24.89Q272.58 25.76 271.63 26.25Q271.58 26.37 271.56 26.55Q271.53 26.73 271.53 27.00Q271.53 27.71 271.95 28.41Q272.36 29.10 272.96 29.65Q273.56 30.20 274.26 30.55Q274.95 30.91 275.51 30.91Q275.76 30.91 275.93 30.88Q276.10 30.86 276.22 30.81Q276.73 29.81 277.61 28.70Q278.49 27.59 279.54 26.53Q280.59 25.46 281.74 24.52Q282.89 23.58 283.98 22.95L283.98 22.75M285.13 23.32L285.08 23.66L284.77 23.80Q283.67 24.39 282.52 25.32Q283.35 25.98 284.18 26.78Q285.01 27.59 285.75 28.45Q286.50 29.32 287.15 30.22Q287.79 31.13 288.23 31.96Q288.45 31.96 288.81 31.92Q289.16 31.88 289.59 31.75Q290.01 31.62 290.50 31.35Q290.99 31.08 291.48 30.62Q291.92 30.15 292.20 29.71Q292.48 29.27 292.63 28.88Q292.77 28.49 292.83 28.17Q292.90 27.86 292.92 27.66Q291.92 27.05 290.81 26.03Q289.70 25 288.67 23.82Q287.65 22.63 286.80 21.42Q285.96 20.21 285.52 19.21Q285.40 19.17 285.23 19.14Q285.06 19.12 284.81 19.12Q284.33 19.12 283.76 19.31Q284.23 19.80 284.50 20.30Q284.77 20.80 284.91 21.26Q285.06 21.73 285.10 22.12Q285.13 22.51 285.13 22.80L285.13 23.32ZM317.21 48.00L316.92 48.05Q315.60 48.27 314.16 48.77Q312.72 49.27 311.33 49.94Q309.94 50.61 308.72 51.42Q307.50 52.22 306.67 53.05L306.23 53.25Q306.15 53.25 305.79 53.23Q305.42 53.22 304.91 53.04Q304.39 52.86 303.77 52.47Q303.15 52.08 302.56 51.29Q302.15 51.46 301.66 51.56Q301.17 51.66 300.56 51.66Q299.24 51.66 298.29 51.38Q297.34 51.10 296.68 50.68Q296.02 50.27 295.63 49.78Q295.24 49.29 295.03 48.89Q294.82 48.49 294.75 48.21Q294.68 47.92 294.68 47.95L294.63 47.71L294.78 47.51Q296.09 45.58 296.73 43.37Q297.36 41.16 297.36 38.55L297.36 37.96L297.46 37.65Q298.49 35.69 298.95 33.72Q299.41 31.74 299.41 29.71Q299.41 29.30 299.41 28.91Q299.41 28.52 299.37 28.10L299.32 27.91L299.46 27.71Q301.93 24.05 301.93 19.80Q301.93 19.46 301.93 19.10Q301.93 18.75 301.88 18.41L301.83 18.07L302.08 17.85Q302.10 17.82 302.31 17.69Q302.51 17.55 302.92 17.38Q303.32 17.21 303.89 17.08Q304.47 16.94 305.22 16.94Q306.79 16.94 307.87 17.42Q308.96 17.90 309.63 18.46Q310.30 19.02 310.62 19.49Q310.94 19.97 310.96 20.00L311.13 20.31L310.91 20.61Q308.62 24.39 308.62 28.30L308.62 28.96Q309.84 30.71 311.29 31.81Q312.74 32.91 314.67 33.54L314.87 33.59L315.01 33.81Q315.75 34.86 316.37 35.55Q316.99 36.23 317.66 36.71Q318.33 37.18 319.13 37.52Q319.92 37.87 320.97 38.21L321.26 38.31L321.36 38.60Q321.36 38.65 321.41 38.93Q321.46 39.21 321.46 39.70Q321.46 40.33 321.25 41.24Q321.04 42.14 320.36 43.16Q319.80 44.02 319.14 44.51Q318.48 45.00 317.92 45.31L317.92 45.46Q317.92 46.44 317.70 47.05Q317.48 47.66 317.43 47.71L317.21 48.00M309.67 20.31Q309.52 20.07 309.18 19.70Q308.84 19.34 308.29 19.01Q307.74 18.68 306.99 18.44Q306.25 18.21 305.27 18.21Q304.44 18.21 303.92 18.36Q303.39 18.51 303.13 18.65Q303.13 18.97 303.15 19.23Q303.17 19.48 303.17 19.75Q303.17 21.83 302.66 23.68Q302.15 25.54 301.12 27.29L301.78 27.29Q302.73 27.29 303.52 27.50Q304.30 27.71 304.86 27.97Q305.42 28.22 305.74 28.43Q306.05 28.64 306.08 28.66Q306.15 28.74 306.21 28.83Q306.27 28.93 306.27 29.05Q306.27 29.27 306.10 29.42Q305.93 29.57 305.76 29.57Q305.64 29.57 305.47 29.44Q305.44 29.42 305.19 29.27Q304.93 29.13 304.47 28.96Q304.00 28.78 303.36 28.65Q302.71 28.52 301.93 28.52Q301.61 28.52 301.28 28.54Q300.95 28.56 300.61 28.61Q300.61 28.91 300.63 29.20Q300.66 29.49 300.66 29.81Q300.66 33.72 298.93 37.40Q299.61 37.45 300.55 37.66Q301.49 37.87 302.32 38.15Q303.15 38.43 303.74 38.75Q304.32 39.06 304.32 39.36Q304.32 39.55 304.19 39.70Q304.05 39.84 303.81 39.84Q303.74 39.84 303.71 39.82Q303.69 39.79 303.61 39.79Q302.71 39.31 301.34 38.98Q299.98 38.65 298.63 38.60Q298.58 41.33 297.94 43.63Q297.29 45.92 295.92 47.95Q296.00 48.14 296.25 48.56Q296.51 48.97 297.03 49.40Q297.56 49.83 298.43 50.15Q299.29 50.46 300.61 50.46Q301.68 50.46 302.29 50.12Q302.91 49.78 303.13 49.56Q303.05 49.10 303.04 48.63Q303.03 48.17 303.03 47.71Q303.03 45.51 303.59 43.44Q304.15 41.38 305.37 39.45Q305.30 39.01 305.29 38.56Q305.27 38.11 305.27 37.65Q305.27 33.59 307.42 29.39Q307.37 29.13 307.37 28.89Q307.37 28.66 307.37 28.39Q307.37 24.17 309.67 20.31M304.22 47.75Q304.22 48.73 304.37 49.71L304.42 49.95L304.27 50.15Q304.22 50.20 304.10 50.35Q303.98 50.51 303.71 50.71Q304.39 51.54 305.04 51.78Q305.69 52.03 306.03 52.05Q306.88 51.22 308.13 50.42Q309.38 49.61 310.78 48.91Q312.18 48.22 313.65 47.69Q315.11 47.17 316.43 46.95Q316.50 46.73 316.56 46.37Q316.63 46.02 316.63 45.56Q316.63 44.51 316.25 43.70Q315.87 42.90 315.38 42.33Q314.89 41.77 314.42 41.47Q313.94 41.16 313.72 41.11Q312.94 41.77 311.80 42.44Q310.67 43.12 309.40 43.70Q308.13 44.29 306.82 44.75Q305.52 45.21 304.37 45.51Q304.22 46.66 304.22 47.75M320.26 39.26Q319.38 38.96 318.69 38.67Q317.99 38.38 317.37 37.96Q316.75 37.55 316.13 36.95Q315.50 36.35 314.77 35.45Q314.48 36.47 313.98 37.19Q313.48 37.92 313.00 38.39Q312.52 38.87 312.16 39.10Q311.79 39.33 311.77 39.36Q311.67 39.45 311.52 39.45Q311.33 39.45 311.17 39.29Q311.01 39.14 311.01 38.92Q311.01 38.65 311.28 38.55Q311.30 38.53 311.62 38.27Q311.94 38.01 312.34 37.50Q312.74 36.99 313.16 36.24Q313.57 35.50 313.77 34.50Q312.96 34.13 312.22 33.74Q311.47 33.35 310.79 32.89Q310.11 32.42 309.48 31.86Q308.86 31.30 308.28 30.57Q306.69 33.74 306.47 36.77Q307.69 37.40 308.69 38.28Q309.69 39.16 310.62 40.31L312.06 40.84Q312.38 40.65 312.63 40.44Q312.89 40.23 313.16 40.01L313.43 39.79L313.72 39.84Q313.65 39.84 314.15 40.00Q314.65 40.16 315.34 40.60Q316.04 41.04 316.74 41.85Q317.43 42.65 317.72 43.95Q318.26 43.58 318.73 43.03Q319.19 42.48 319.53 41.88Q319.87 41.28 320.07 40.69Q320.26 40.09 320.26 39.60L320.26 39.26M310.13 41.41L309.81 41.21Q308.98 40.14 308.15 39.38Q307.32 38.62 306.47 38.11Q306.47 38.84 306.62 39.50L306.52 39.92Q305.88 40.97 305.41 42.04Q304.93 43.12 304.66 44.26Q306.13 43.85 307.76 43.18Q309.40 42.50 310.86 41.65L310.13 41.41Z"/></g></g></svg>