<svg xmlns="http://www.w3.org/2000/svg" viewBox="0 11.5 219.788818359375 103.85000610351562" data-asc="1.039" width="219.788818359375" height="103.85000610351562"><defs/><g fill="#f59e0b"><g transform="translate(0, 0)"><path d="M5.03 29.35Q4.70 31.60 4.61 32.74Q4.53 33.88 4.63 34.34Q4.72 34.80 4.97 35.05Q5.42 35.50 6.82 35.55Q8.22 35.60 10.93 35.60Q13 35.60 14.43 35.06Q15.85 34.52 16.71 33.52Q17.57 32.52 17.95 31.09Q18.32 29.65 18.32 27.85Q18.32 24.42 16.89 22.81Q15.45 21.20 12.38 21.20Q10.50 21.20 9.22 21.51Q7.95 21.82 7.13 22.65Q6.75 23.02 6.46 23.51Q6.17 24.00 5.94 24.74Q5.70 25.47 5.49 26.60Q5.28 27.72 5.03 29.35M0.02 48.65Q0.07 44.07 0.20 39.41Q0.32 34.75 0.52 30.32Q0.73 25.90 1.02 22.00Q1.15 20.12 1.57 18.91Q2.00 17.70 2.98 17.10Q3.95 16.50 5.70 16.50Q7.32 16.50 9.39 16.70Q11.45 16.90 13.52 17.32Q15.60 17.75 17.30 18.41Q19 19.07 19.93 20.00Q21.20 21.27 21.76 23.16Q22.32 25.05 22.32 28.05Q22.32 30.67 21.56 32.67Q20.80 34.67 19.63 35.85Q18.50 36.97 17.43 37.59Q16.35 38.20 15.35 38.45Q14.35 38.70 13.48 38.75Q12.72 38.77 12.21 38.99Q11.70 39.20 11.36 39.75Q11.03 40.30 10.78 41.35Q10.25 43.40 9.94 45.70Q9.63 48.00 9.18 49.70Q8.72 51.42 7.78 52.79Q6.82 54.15 4.57 54.15Q2.10 54.10 1.05 52.72Q0 51.35 0.02 48.65M19.82 38.35Q21.10 39.87 21.51 40.84Q21.93 41.80 21.13 42.60Q20.30 43.42 19.26 42.86Q18.23 42.30 17.18 41.10Q15.57 39.22 14.01 37.32Q12.45 35.42 10.97 33.55Q10 32.30 9.80 31.47Q9.60 30.65 10.22 30.10Q10.82 29.60 11.61 29.86Q12.40 30.12 13.63 31.45Q15.18 33.05 16.74 34.77Q18.30 36.50 19.82 38.35M22.07 26.67Q24.07 26.85 24.60 27.36Q25.13 27.87 25.13 28.55Q25.13 29.25 24.53 29.69Q23.93 30.12 21.98 30.05Q20.78 30.00 19.60 29.95Q18.43 29.90 17.23 29.80Q15.65 29.65 14.79 29.30Q13.93 28.95 13.93 28.05Q13.93 26.87 15.04 26.62Q16.15 26.37 17.88 26.42Q18.82 26.45 19.91 26.51Q21 26.57 22.07 26.67M1.52 48.25Q2.02 48.25 2.27 48.64Q2.52 49.02 2.52 49.85Q2.52 50.90 2.27 51.20Q2.02 51.50 1.68 51.50Q1.57 51.50 1.46 51.50Q1.35 51.50 1.23 51.50Q0.82 51.50 0.57 51.07Q0.32 50.65 0.32 49.80Q0.32 48.92 0.56 48.59Q0.80 48.25 1.18 48.25Q1.25 48.25 1.35 48.25Q1.45 48.25 1.52 48.25M5.57 43.55Q6.78 43.55 7.35 42.94Q7.93 42.32 7.93 41.50Q7.93 40.30 7.30 39.67Q6.68 39.05 5.57 39.05Q4.68 39.05 4.05 39.67Q3.43 40.30 3.43 41.35Q3.43 42.40 4 42.97Q4.57 43.55 5.57 43.55M4.57 49.55Q5.60 49.55 6.14 49.05Q6.68 48.55 6.68 47.50Q6.68 46.75 6.20 46.30Q5.72 45.85 4.93 45.85Q3.95 45.85 3.46 46.39Q2.98 46.92 2.98 47.75Q2.98 48.50 3.50 49.02Q4.03 49.55 4.57 49.55ZM27.02 26.75Q26.13 25.55 25.72 24.36Q25.32 23.17 25.32 22.12Q25.32 20.27 26.10 18.97Q26.88 17.67 28.19 16.99Q29.50 16.30 31.07 16.30Q33 16.30 34.24 17.24Q35.48 18.17 36.50 20.05Q37.50 21.87 38.42 23.92Q39.35 25.97 40.38 27.82Q40.67 28.35 40.99 28.64Q41.30 28.92 41.67 28.92Q42.10 28.92 42.54 28.65Q42.98 28.37 43.30 27.77Q44.60 25.55 45.90 22.99Q47.20 20.42 48.45 18.30Q49 17.37 49.61 16.84Q50.23 16.30 51.05 16.30Q51.58 16.30 51.95 16.52Q52.33 16.75 52.53 17.16Q52.73 17.57 52.73 18.15Q52.73 18.60 52.59 19.14Q52.45 19.67 52.13 20.25Q51.30 21.77 50.58 23.04Q49.85 24.30 49.17 25.45Q49 25.72 48.85 26.00Q48.70 26.27 48.53 26.55Q48.40 26.75 48.28 26.96Q48.15 27.17 48.03 27.37Q47.90 27.57 47.78 27.80Q47.53 28.20 47.29 28.60Q47.05 29.00 46.80 29.42Q46.65 29.67 46.50 29.94Q46.35 30.20 46.17 30.47Q45.98 30.82 45.75 31.20Q45.53 31.57 45.30 31.97Q44.90 32.62 44.49 33.35Q44.08 34.07 43.65 34.88Q43.20 35.70 42.81 36.59Q42.42 37.47 42.21 38.45Q42 39.42 42.05 40.55Q42.20 43.05 42.51 45.35Q42.83 47.65 43 50.15Q43.13 51.97 42.46 53.01Q41.80 54.05 39.95 54.05Q38.30 54.05 37.56 52.99Q36.83 51.92 36.85 50.10Q36.90 48.40 37.13 46.60Q37.35 44.80 37.33 43.12Q37.30 41.87 36.94 40.70Q36.58 39.52 35.48 37.90Q33.50 35.02 31.30 32.27Q29.10 29.52 27.02 26.75M31.43 24.87Q32.55 24.87 33.11 24.22Q33.67 23.57 33.67 22.52Q33.67 21.50 33.10 20.94Q32.52 20.37 31.13 20.37Q30.15 20.37 29.66 21.07Q29.18 21.77 29.18 22.82Q29.18 23.75 29.77 24.31Q30.38 24.87 31.43 24.87M34.98 30.32Q35.80 30.32 36.31 29.81Q36.83 29.30 36.83 28.52Q36.83 27.35 36.24 26.74Q35.65 26.12 34.63 26.12Q33.70 26.12 33.16 26.66Q32.63 27.20 32.63 28.47Q32.63 29.30 33.26 29.81Q33.90 30.32 34.98 30.32M38.65 35.17Q39.40 35.17 39.92 34.72Q40.45 34.27 40.45 33.57Q40.45 32.55 39.95 32.01Q39.45 31.47 38.85 31.47Q37.80 31.47 37.27 32.00Q36.75 32.52 36.75 33.32Q36.75 34.25 37.25 34.71Q37.75 35.17 38.65 35.17M51.60 24.25Q50 23.47 48.56 22.67Q47.13 21.87 45.83 21.00Q44.30 19.97 43.65 19.07Q43 18.17 43.55 17.25Q44.13 16.37 45.26 16.64Q46.40 16.90 47.73 17.70Q49.05 18.50 50.45 19.37Q51.85 20.25 53.35 21.30Q54.23 21.90 54.55 22.55Q54.88 23.20 54.38 24.00Q53.92 24.77 53.21 24.72Q52.50 24.67 51.60 24.25M47.88 29.50Q46.80 28.85 45.73 28.17Q44.65 27.50 43.63 26.80Q42.20 25.82 41.73 25.22Q41.25 24.62 41.63 23.85Q42.05 22.97 42.98 23.09Q43.90 23.20 45.17 23.85Q46.45 24.47 47.73 25.15Q49 25.82 50.28 26.55Q51.42 27.17 51.95 28.04Q52.48 28.90 51.98 29.77Q51.45 30.70 50.28 30.45Q49.10 30.20 47.88 29.50M28.13 20.95Q28.02 21.02 27.94 21.10Q27.85 21.17 27.73 21.25Q27.43 21.47 27.14 21.31Q26.85 21.15 26.72 20.85Q26.63 20.62 26.64 20.41Q26.65 20.20 26.88 20.10Q26.95 20.05 27.05 19.99Q27.15 19.92 27.23 19.90Q27.45 19.77 27.66 19.84Q27.88 19.90 28.02 20.10Q28.23 20.27 28.27 20.54Q28.32 20.80 28.13 20.95M31.98 18.45Q31.90 18.47 31.80 18.51Q31.70 18.55 31.63 18.60Q31.32 18.75 31.05 18.55Q30.77 18.35 30.63 18.10Q30.48 17.80 30.50 17.50Q30.52 17.20 30.82 17.10Q30.95 17.05 31.06 16.99Q31.18 16.92 31.27 16.90Q31.57 16.75 31.85 16.95Q32.13 17.15 32.27 17.45Q32.40 17.70 32.36 18.00Q32.33 18.30 31.98 18.45ZM67.17 52.55Q63.60 52.55 60.77 50.84Q57.95 49.12 56.31 45.49Q54.67 41.85 54.67 36.05Q54.67 29.95 56.67 25.55Q58.67 21.15 62.13 18.77Q65.58 16.40 69.88 16.40Q71.88 16.40 73.55 16.91Q75.22 17.42 76.22 18.32Q77.22 19.22 77.22 20.35Q77.22 21.17 76.79 21.54Q76.35 21.90 75.78 21.90Q75.22 21.90 74.80 21.71Q74.38 21.52 74.08 21.35Q73.92 21.25 73.79 21.19Q73.65 21.12 73.51 21.05Q73.38 20.97 73.25 20.92Q73.05 20.82 72.85 20.74Q72.65 20.65 72.47 20.59Q72.30 20.52 72.10 20.47Q71.83 20.40 71.54 20.34Q71.25 20.27 70.97 20.25Q70.78 20.22 70.54 20.22Q70.30 20.22 70.05 20.21Q69.80 20.20 69.53 20.20Q69.33 20.20 69.11 20.21Q68.90 20.22 68.69 20.24Q68.47 20.25 68.25 20.27Q65.42 20.62 63.39 22.64Q61.35 24.65 60.26 27.71Q59.17 30.77 59.17 34.35Q59.17 36.12 59.56 37.42Q59.95 38.72 60.56 39.55Q61.17 40.37 61.82 40.70Q62.13 40.85 62.31 40.91Q62.50 40.97 62.72 41.05Q62.50 44.27 62.92 45.32Q63.35 46.37 64.28 46.35Q65 46.30 65.42 45.39Q65.85 44.47 65.92 41.45Q66.53 41.45 67.29 41.32Q68.05 41.20 68.67 41.10Q68.60 44.12 68.79 45.56Q68.97 47.00 69.38 47.42Q69.78 47.85 70.38 47.85Q71.10 47.85 71.49 47.29Q71.88 46.72 71.88 45.12Q71.88 43.52 71.42 40.40Q71.85 40.25 72.28 40.17Q72.70 40.10 73.22 40.10Q74.92 40.10 75.83 41.61Q76.72 43.12 76.72 45.05Q76.72 46.92 75.97 48.34Q75.22 49.75 73.91 50.69Q72.60 51.62 70.86 52.09Q69.13 52.55 67.17 52.55M69.92 13.85Q70.30 16.25 70.70 19.05Q71.10 21.85 71.42 24.40Q71.55 25.20 71.40 25.76Q71.25 26.32 70.84 26.62Q70.42 26.92 69.72 26.92Q68.95 26.92 68.54 26.35Q68.13 25.77 67.88 24.80Q67.35 22.42 66.79 19.67Q66.22 16.92 65.78 14.60Q65.60 13.60 65.78 12.91Q65.95 12.22 66.49 11.86Q67.03 11.50 67.92 11.50Q68.67 11.50 69.19 12.00Q69.70 12.50 69.92 13.85M60.92 17.60Q61.42 18.20 61.91 18.82Q62.40 19.45 62.88 20.25Q63.32 20.95 63.31 21.60Q63.30 22.25 62.77 22.75Q62.17 23.37 61.52 23.32Q60.88 23.27 60.22 22.65Q59.45 21.90 58.86 21.25Q58.27 20.60 57.82 20.00Q56.90 18.72 56.76 17.92Q56.63 17.12 57.38 16.45Q58.05 15.80 59.02 16.17Q60 16.55 60.92 17.60M66.78 35.45Q65.33 35.45 64.55 34.66Q63.77 33.88 63.77 32.75Q63.77 31.25 64.47 30.55Q65.17 29.85 66.33 29.85Q67.80 29.85 68.59 30.61Q69.38 31.37 69.38 32.70Q69.38 34 68.71 34.72Q68.05 35.45 66.78 35.45M74.13 48.80Q74.17 48.87 74.21 48.92Q74.25 48.97 74.28 49.05Q74.58 49.52 73.97 49.89Q73.38 50.25 72.85 50.25Q72.67 50.25 72.50 50.19Q72.33 50.12 72.22 50.00Q72.15 49.87 72.09 49.79Q72.03 49.70 71.97 49.60L74.13 48.80M67.97 49.45Q67.97 49.55 68 49.66Q68.03 49.77 68.03 49.90Q68.10 50.42 67.45 50.76Q66.80 51.10 66.10 51.10Q65.53 51.10 65.05 50.89Q64.58 50.67 64.53 50.12Q64.53 49.97 64.53 49.84Q64.53 49.70 64.53 49.55Q64.50 48.95 65.09 48.65Q65.67 48.35 66.22 48.35Q66.85 48.35 67.38 48.60Q67.90 48.85 67.97 49.45ZM94.28 52.55Q89.45 52.55 86.38 50.19Q83.30 47.82 81.84 43.67Q80.38 39.52 80.38 34.15Q80.38 29.10 82.06 25.00Q83.75 20.90 86.97 18.47Q90.20 16.05 94.83 16.05Q97.65 16.05 100.13 17.05Q102.60 18.05 104.51 20.14Q106.42 22.22 107.50 25.47Q108.58 28.72 108.58 33.25Q108.58 38.85 106.91 43.21Q105.25 47.57 102.05 50.06Q98.85 52.55 94.28 52.55M93.08 41.70Q96.40 41.70 98.81 40.21Q101.22 38.72 102.53 36.12Q103.83 33.52 103.83 30.15Q103.83 26.72 102.60 24.35Q101.38 21.97 99.29 20.74Q97.20 19.50 94.63 19.50Q91.30 19.50 89.03 21.31Q86.75 23.12 85.59 26.10Q84.42 29.07 84.42 32.55Q84.42 35.07 85.31 37.15Q86.20 39.22 88.11 40.46Q90.03 41.70 93.08 41.70M101.47 42.05Q100.65 42.05 100.19 42.47Q99.72 42.90 99.72 44.00Q99.72 44.75 100.15 45.17Q100.58 45.60 101.63 45.60Q102.42 45.60 102.85 45.12Q103.28 44.65 103.28 43.90Q103.28 42.87 102.85 42.46Q102.42 42.05 101.47 42.05M96.08 44.35Q95.10 44.35 94.49 44.92Q93.88 45.50 93.88 46.60Q93.88 47.52 94.40 48.14Q94.92 48.75 96.13 48.75Q97.22 48.75 97.75 48.14Q98.28 47.52 98.28 46.75Q98.28 45.47 97.69 44.91Q97.10 44.35 96.08 44.35M89.78 44.55Q89.10 44.55 88.64 44.95Q88.17 45.35 88.17 46.10Q88.17 47.17 88.65 47.64Q89.13 48.10 90.03 48.10Q90.92 48.10 91.33 47.67Q91.72 47.25 91.72 46.20Q91.72 45.52 91.20 45.04Q90.67 44.55 89.78 44.55M101.88 19.75Q101.65 20.15 101.42 20.59Q101.20 21.02 100.97 21.45Q99.83 23.55 98.97 24.36Q98.13 25.17 97.22 24.70Q96.60 24.35 96.60 23.46Q96.60 22.57 97.38 21.05Q98.03 19.87 98.34 19.37Q98.65 18.87 98.88 18.50Q99.22 17.92 99.83 17.87Q100.42 17.82 100.97 18.10Q101.50 18.35 101.80 18.82Q102.10 19.30 101.88 19.75M89.88 19.60Q90.33 20.00 90.80 20.42Q91.28 20.85 91.72 21.35Q93.38 23.15 93.56 24.09Q93.75 25.02 93.22 25.55Q92.67 26.10 91.75 25.89Q90.83 25.67 89.33 24.25Q88.42 23.42 87.91 22.90Q87.40 22.37 86.97 21.85Q86.67 21.42 86.88 20.84Q87.08 20.25 87.47 19.85Q87.92 19.35 88.60 19.19Q89.28 19.02 89.88 19.60M84.08 26.90Q85.13 27.12 86.15 27.34Q87.17 27.55 88.22 27.85Q90.78 28.55 91.45 29.16Q92.13 29.77 91.92 30.60Q91.75 31.45 90.83 31.61Q89.90 31.77 87.53 31.45Q86.47 31.30 85.40 31.11Q84.33 30.92 83.28 30.70Q82.60 30.55 82.40 29.85Q82.20 29.15 82.38 28.45Q82.53 27.72 82.99 27.25Q83.45 26.77 84.08 26.90M83.42 37.15Q83.70 36.95 83.99 36.79Q84.28 36.62 84.53 36.45Q86.38 35.32 87.44 34.95Q88.50 34.57 89.04 34.70Q89.58 34.82 89.83 35.20Q90.13 35.63 90.04 36.19Q89.95 36.75 89.10 37.52Q88.25 38.30 86.28 39.35Q85.95 39.52 85.59 39.71Q85.22 39.90 84.88 40.10Q84.28 40.40 83.76 40.14Q83.25 39.87 82.97 39.35Q82.72 38.82 82.78 38.17Q82.83 37.52 83.42 37.15M105.92 25.85Q106.30 25.77 106.59 26.17Q106.88 26.57 107.03 27.15Q107.17 27.85 107.10 28.50Q107.03 29.15 106.58 29.20Q106.47 29.20 106.36 29.22Q106.25 29.25 106.13 29.25Q105.67 29.27 105.39 28.79Q105.10 28.30 104.97 27.70Q104.90 27.05 105.06 26.51Q105.22 25.97 105.67 25.90Q105.75 25.90 105.80 25.87Q105.85 25.85 105.92 25.85M105.03 37.50Q105.15 37.65 105.26 37.77Q105.38 37.90 105.47 38.05Q105.75 38.37 105.61 38.72Q105.47 39.07 105.17 39.35Q104.88 39.57 104.53 39.64Q104.17 39.70 103.97 39.40Q103.83 39.17 103.67 38.97Q103.53 38.77 103.38 38.55Q103.08 38.12 103.20 37.77Q103.33 37.42 103.63 37.25Q103.92 37.05 104.33 37.09Q104.72 37.12 105.03 37.50ZM113.75 48.15Q113.73 47.67 113.71 47.09Q113.70 46.50 113.71 45.87Q113.73 45.25 113.75 44.70Q117.80 45.02 119.20 44.56Q120.60 44.10 120.60 43.05Q120.60 41.70 119.23 41.39Q117.85 41.07 113.90 41.35Q113.95 40.47 113.99 39.61Q114.03 38.75 114.10 37.90Q115.85 38.07 116.98 38.01Q118.10 37.95 118.65 37.54Q119.20 37.12 119.20 36.25Q119.20 35.15 118.10 34.76Q117 34.38 114.25 34.30Q114.38 31.52 114.61 28.37Q114.85 25.22 115.15 22.50Q115.53 19.12 117.08 17.64Q118.63 16.15 121.10 16.15Q123.35 16.15 124.61 17.32Q125.88 18.50 126.80 21.10Q127.63 23.37 128.53 26.11Q129.43 28.85 130.36 31.80Q131.30 34.75 132.24 37.64Q133.18 40.52 134.10 43.10Q134.43 44.02 135.05 44.22Q135.68 44.42 136.18 43.99Q136.68 43.55 136.65 42.55Q136.60 38.97 136.50 34.66Q136.40 30.35 136.34 25.86Q136.28 21.37 136.30 17.25Q136.30 15.67 136.91 14.89Q137.53 14.10 138.80 14.10Q140 14.10 140.57 14.95Q141.15 15.80 141.15 17.50Q141.13 21.62 140.99 26.07Q140.85 30.52 140.61 35.11Q140.38 39.70 140.05 44.25Q139.88 46.87 138.61 47.91Q137.35 48.95 135.50 48.95Q133.68 48.95 132.54 47.94Q131.40 46.92 130.65 45.05Q129.25 41.60 127.94 37.97Q126.63 34.35 125.34 30.80Q124.05 27.25 122.75 24.00Q122.58 23.55 122.34 23.35Q122.10 23.15 121.75 23.15Q121.23 23.15 120.91 23.59Q120.60 24.02 120.75 24.85Q121.30 28.27 122 31.82Q122.70 35.38 123.41 38.97Q124.13 42.57 124.70 46.15Q125.23 49.52 123.76 51.36Q122.30 53.20 119.15 53.20Q116.35 53.20 115.09 51.81Q113.83 50.42 113.75 48.15M136.65 20.20Q137.60 20.22 138.56 20.29Q139.53 20.35 140.45 20.40Q142.50 20.50 143.44 20.70Q144.38 20.90 144.64 21.25Q144.90 21.60 144.90 22.15Q144.90 22.70 144.61 23.06Q144.32 23.42 143.35 23.61Q142.38 23.80 140.35 23.80Q139.38 23.80 138.43 23.80Q137.47 23.80 136.50 23.80Q134.55 23.80 133.53 23.56Q132.50 23.32 132.13 22.87Q131.75 22.42 131.75 21.80Q131.75 21.20 132.14 20.81Q132.53 20.42 133.59 20.26Q134.65 20.10 136.65 20.20M136.45 27.00Q137.43 27.00 138.43 26.97Q139.43 26.95 140.40 26.95Q142.72 26.90 143.36 27.29Q144 27.67 144 28.55Q144 29.60 143.38 30.05Q142.75 30.50 140.50 30.50Q139.60 30.50 138.68 30.50Q137.75 30.50 136.85 30.50Q134.13 30.50 133.19 30.15Q132.25 29.80 132.25 28.75Q132.25 27.92 133.06 27.47Q133.88 27.02 136.45 27.00M138.25 31.70Q138.32 31.70 138.40 31.70Q138.47 31.70 138.55 31.70Q138.95 31.70 139.20 31.95Q139.45 32.20 139.57 32.59Q139.70 32.97 139.70 33.40Q139.70 33.82 139.55 34.22Q139.40 34.63 139.13 34.89Q138.85 35.15 138.45 35.15Q138.35 35.15 138.26 35.15Q138.18 35.15 138.05 35.15Q137.50 35.15 137.22 34.65Q136.95 34.15 136.95 33.55Q136.95 32.88 137.29 32.29Q137.63 31.70 138.25 31.70M118.35 45.85Q118.65 45.85 118.98 45.85Q119.30 45.85 119.60 45.85Q120.28 45.85 120.61 46.37Q120.95 46.90 120.95 47.55Q120.95 48.30 120.55 48.87Q120.15 49.45 119.35 49.50Q119.03 49.50 118.71 49.50Q118.40 49.50 118.05 49.50Q117.30 49.50 116.92 48.91Q116.55 48.32 116.55 47.65Q116.55 46.85 116.96 46.35Q117.38 45.85 118.35 45.85M120.10 49.00Q119.33 49.00 118.91 48.57Q118.50 48.15 118.50 47.30Q118.50 46.65 118.96 46.25Q119.42 45.85 120.20 45.85Q120.85 45.85 121.25 46.24Q121.65 46.62 121.65 47.35Q121.65 48.17 121.21 48.59Q120.78 49.00 120.10 49.00M122.50 20.75Q122.50 20.75 122.50 20.75Q122.50 20.75 122.50 20.75Q122.50 20.75 122.50 20.75Q122.50 20.75 122.50 20.75Q122.50 20.75 122.50 20.75Q122.50 20.75 122.50 20.75Q122.50 20.75 122.50 20.75Q122.50 20.75 122.50 20.75M119.50 18.40Q119.50 18.40 119.50 18.40Q119.50 18.40 119.50 18.40Q119.50 18.40 119.50 18.40Q119.50 18.40 119.50 18.40Q119.50 18.40 119.50 18.40Q119.50 18.40 119.50 18.40Q119.50 18.40 119.50 18.40Q119.50 18.40 119.50 18.40ZM158.95 48.15Q158.93 47.67 158.91 47.09Q158.90 46.50 158.91 45.87Q158.93 45.25 158.95 44.70Q163 45.02 164.40 44.56Q165.80 44.10 165.80 43.05Q165.80 41.70 164.43 41.39Q163.05 41.07 159.10 41.35Q159.15 40.47 159.19 39.61Q159.22 38.75 159.30 37.90Q161.05 38.07 162.18 38.01Q163.30 37.95 163.85 37.54Q164.40 37.12 164.40 36.25Q164.40 35.15 163.30 34.76Q162.20 34.38 159.45 34.30Q159.58 31.52 159.81 28.37Q160.05 25.22 160.35 22.50Q160.72 19.12 162.28 17.64Q163.83 16.15 166.30 16.15Q168.55 16.15 169.81 17.32Q171.08 18.50 172 21.10Q172.83 23.37 173.72 26.11Q174.63 28.85 175.56 31.80Q176.50 34.75 177.44 37.64Q178.38 40.52 179.30 43.10Q179.63 44.02 180.25 44.22Q180.88 44.42 181.38 43.99Q181.88 43.55 181.85 42.55Q181.80 38.97 181.70 34.66Q181.60 30.35 181.54 25.86Q181.48 21.37 181.50 17.25Q181.50 15.67 182.11 14.89Q182.73 14.10 184 14.10Q185.20 14.10 185.78 14.95Q186.35 15.80 186.35 17.50Q186.33 21.62 186.19 26.07Q186.05 30.52 185.81 35.11Q185.58 39.70 185.25 44.25Q185.08 46.87 183.81 47.91Q182.55 48.95 180.70 48.95Q178.88 48.95 177.74 47.94Q176.60 46.92 175.85 45.05Q174.45 41.60 173.14 37.97Q171.83 34.35 170.54 30.80Q169.25 27.25 167.95 24.00Q167.78 23.55 167.54 23.35Q167.30 23.15 166.95 23.15Q166.43 23.15 166.11 23.59Q165.80 24.02 165.95 24.85Q166.50 28.27 167.20 31.82Q167.90 35.38 168.61 38.97Q169.33 42.57 169.90 46.15Q170.43 49.52 168.96 51.36Q167.50 53.20 164.35 53.20Q161.55 53.20 160.29 51.81Q159.03 50.42 158.95 48.15M181.85 20.20Q182.80 20.22 183.76 20.29Q184.73 20.35 185.65 20.40Q187.70 20.50 188.64 20.70Q189.58 20.90 189.84 21.25Q190.10 21.60 190.10 22.15Q190.10 22.70 189.81 23.06Q189.53 23.42 188.55 23.61Q187.58 23.80 185.55 23.80Q184.58 23.80 183.63 23.80Q182.68 23.80 181.70 23.80Q179.75 23.80 178.73 23.56Q177.70 23.32 177.33 22.87Q176.95 22.42 176.95 21.80Q176.95 21.20 177.34 20.81Q177.73 20.42 178.79 20.26Q179.85 20.10 181.85 20.20M181.65 27.00Q182.63 27.00 183.63 26.97Q184.63 26.95 185.60 26.95Q187.93 26.90 188.56 27.29Q189.20 27.67 189.20 28.55Q189.20 29.60 188.58 30.05Q187.95 30.50 185.70 30.50Q184.80 30.50 183.88 30.50Q182.95 30.50 182.05 30.50Q179.33 30.50 178.39 30.15Q177.45 29.80 177.45 28.75Q177.45 27.92 178.26 27.47Q179.08 27.02 181.65 27.00M183.45 31.70Q183.53 31.70 183.60 31.70Q183.68 31.70 183.75 31.70Q184.15 31.70 184.40 31.95Q184.65 32.20 184.78 32.59Q184.90 32.97 184.90 33.40Q184.90 33.82 184.75 34.22Q184.60 34.63 184.33 34.89Q184.05 35.15 183.65 35.15Q183.55 35.15 183.46 35.15Q183.38 35.15 183.25 35.15Q182.70 35.15 182.43 34.65Q182.15 34.15 182.15 33.55Q182.15 32.88 182.49 32.29Q182.83 31.70 183.45 31.70M163.55 45.85Q163.85 45.85 164.18 45.85Q164.50 45.85 164.80 45.85Q165.47 45.85 165.81 46.37Q166.15 46.90 166.15 47.55Q166.15 48.30 165.75 48.87Q165.35 49.45 164.55 49.50Q164.22 49.50 163.91 49.50Q163.60 49.50 163.25 49.50Q162.50 49.50 162.13 48.91Q161.75 48.32 161.75 47.65Q161.75 46.85 162.16 46.35Q162.58 45.85 163.55 45.85M165.30 49.00Q164.53 49.00 164.11 48.57Q163.70 48.15 163.70 47.30Q163.70 46.65 164.16 46.25Q164.63 45.85 165.40 45.85Q166.05 45.85 166.45 46.24Q166.85 46.62 166.85 47.35Q166.85 48.17 166.41 48.59Q165.97 49.00 165.30 49.00M167.70 20.75Q167.70 20.75 167.70 20.75Q167.70 20.75 167.70 20.75Q167.70 20.75 167.70 20.75Q167.70 20.75 167.70 20.75Q167.70 20.75 167.70 20.75Q167.70 20.75 167.70 20.75Q167.70 20.75 167.70 20.75Q167.70 20.75 167.70 20.75M164.70 18.40Q164.70 18.40 164.70 18.40Q164.70 18.40 164.70 18.40Q164.70 18.40 164.70 18.40Q164.70 18.40 164.70 18.40Q164.70 18.40 164.70 18.40Q164.70 18.40 164.70 18.40Q164.70 18.40 164.70 18.40Q164.70 18.40 164.70 18.40ZM202.78 51.15Q199.33 51.15 196.86 49.85Q194.40 48.55 193.09 45.75Q191.78 42.95 191.78 38.45Q191.78 34 192.59 30.45Q193.40 26.90 194.88 24.25Q196.35 21.60 198.40 19.85Q200.45 18.10 202.95 17.22Q205.45 16.35 208.28 16.35Q211.88 16.35 213.55 17.71Q215.23 19.07 215.23 21.15Q215.23 22.27 214.84 23.01Q214.45 23.75 213.70 24.29Q212.95 24.82 211.88 25.34Q210.80 25.85 209.43 26.50Q206.75 27.77 204.40 29.19Q202.05 30.60 200.28 32.25Q198.50 33.90 197.49 35.89Q196.48 37.87 196.48 40.30Q196.48 42.70 197.31 44.25Q198.15 45.80 199.68 46.55Q201.20 47.30 203.28 47.30Q205.80 47.30 208.19 46.46Q210.58 45.62 212.13 44.05Q213.68 42.47 213.68 40.25Q213.68 39.25 213.45 38.62Q213.23 38.00 212.70 37.71Q212.18 37.42 211.28 37.45Q210.73 37.47 210.21 37.49Q209.70 37.50 209.13 37.50Q207.75 37.52 206.94 36.95Q206.13 36.37 206.13 35.15Q206.13 33.72 207.13 33.06Q208.13 32.40 209.63 32.55Q210.83 32.65 212.11 32.82Q213.40 33 214.38 33.15Q216.08 33.40 216.70 34.17Q217.33 34.95 217.63 36.90Q217.73 37.55 217.86 38.55Q218.00 39.55 218.18 40.77Q218.23 41.17 218.29 41.59Q218.35 42.00 218.40 42.42Q218.43 42.67 218.46 42.94Q218.50 43.20 218.54 43.46Q218.58 43.72 218.60 44.00Q218.65 44.40 218.71 44.81Q218.78 45.22 218.83 45.65Q218.88 46.05 218.93 46.42Q218.98 46.80 219.03 47.17Q219.08 47.57 219.13 47.97Q219.18 48.37 219.23 48.75Q219.38 50.02 219.51 51.10Q219.65 52.17 219.73 52.95Q220.03 55.60 218.80 56.88Q217.58 58.15 216.03 58.15Q214.58 58.15 213.38 57.04Q212.18 55.92 212.38 53.85Q212.50 52.45 212.65 51.77Q212.80 51.10 212.83 50.25Q212.88 49.65 212.79 49.27Q212.70 48.90 212.28 48.90Q211.88 48.90 211.18 49.24Q210.48 49.57 209.35 50.02Q208.23 50.47 206.61 50.81Q205.00 51.15 202.78 51.15M207.43 23.65Q208.30 23.65 208.74 23.12Q209.18 22.60 209.18 21.70Q209.18 20.95 208.74 20.50Q208.30 20.05 207.28 20.05Q206.60 20.05 206.09 20.51Q205.58 20.97 205.58 21.80Q205.58 22.62 206.04 23.14Q206.50 23.65 207.43 23.65M201.58 26.70Q203.00 26.70 203.61 26.12Q204.23 25.55 204.23 24.55Q204.23 23.45 203.55 22.77Q202.88 22.10 201.83 22.10Q200.75 22.10 200.19 22.77Q199.63 23.45 199.63 24.55Q199.63 25.52 200.25 26.11Q200.88 26.70 201.58 26.70M197.68 30.65Q198.35 30.65 198.79 30.19Q199.23 29.72 199.23 29.10Q199.23 28.05 198.73 27.55Q198.23 27.05 197.43 27.05Q196.50 27.05 196.06 27.55Q195.63 28.05 195.63 29.00Q195.63 29.75 196.16 30.20Q196.70 30.65 197.68 30.65M207.48 43.25Q206.55 43.47 205.38 43.65Q204.20 43.82 203.18 43.95Q201.80 44.10 201.09 43.57Q200.38 43.05 200.38 42.00Q200.38 41.20 200.96 40.70Q201.55 40.20 202.93 40.10Q204.05 40.02 205.23 39.99Q206.40 39.95 207.38 39.95Q208.48 39.95 209.03 40.35Q209.58 40.75 209.58 41.55Q209.58 42.15 209.05 42.56Q208.53 42.97 207.48 43.25M203.88 18.55Q203.95 18.70 204.03 18.82Q204.10 18.95 204.18 19.10Q204.48 19.62 204.16 20.10Q203.85 20.57 203.28 20.80Q202.65 21.10 201.98 21.01Q201.30 20.92 201.08 20.30Q201.00 20.10 200.95 19.94Q200.90 19.77 200.83 19.60Q200.65 19.07 200.95 18.61Q201.25 18.15 201.78 17.90Q202.30 17.67 202.90 17.79Q203.50 17.90 203.88 18.55M198.73 23.55L196.23 25.80Q195.70 25.32 195.48 24.94Q195.25 24.55 195.35 24.15Q195.45 23.75 195.93 23.25Q196.83 22.42 197.43 22.59Q198.03 22.75 198.73 23.55Z"/></g><g transform="translate(0, 62.65)"><path d="M18.45 26.15Q18.45 24.50 17.66 22.95Q16.88 21.40 15.26 20.40Q13.65 19.40 11.15 19.40Q8.30 19.40 6.65 20.84Q5 22.27 5 24.60Q5 26.40 6.03 27.62Q7.05 28.85 9.15 28.85Q10.10 28.85 10.78 28.44Q11.45 28.02 11.45 27.20Q11.45 26.25 10.95 26.00Q10.45 25.75 9.78 25.70Q9.10 25.65 8.60 25.35Q8.10 25.05 8.10 24.05Q8.10 23.25 8.71 22.67Q9.33 22.10 10.55 22.10Q12.40 22.10 13.80 23.31Q15.20 24.52 15.20 26.85Q15.20 29.25 13.36 30.80Q11.53 32.35 8.60 32.35Q4.85 32.35 3.05 30.20Q1.25 28.05 1.25 24.90Q1.25 22.30 2.50 20.26Q3.75 18.22 6.09 17.06Q8.43 15.90 11.70 15.90Q15.38 15.90 17.79 17.31Q20.20 18.72 21.40 20.97Q22.60 23.22 22.60 25.70Q22.60 28.47 21.61 30.60Q20.63 32.72 19.05 34.30Q17.43 35.95 15.54 37.09Q13.65 38.22 11.84 39.04Q10.03 39.85 8.56 40.55Q7.10 41.25 6.30 42.05Q6 42.35 6 42.65Q6.05 43.35 6.85 43.30Q7.65 43.25 9.25 43.00Q9.10 46.30 9.60 47.35Q10.10 48.40 10.95 48.40Q11.48 48.40 11.85 47.94Q12.23 47.47 12.38 46.20Q12.53 44.92 12.35 42.45Q13.08 42.32 13.76 42.21Q14.45 42.10 15.15 42.00Q15.28 45.75 15.63 47.07Q15.98 48.40 17.05 48.40Q18.30 48.40 18.50 46.86Q18.70 45.32 18.05 41.50Q19.55 41.25 20.63 41.92Q21.70 42.60 22.28 43.89Q22.85 45.17 22.85 46.75Q22.85 49.65 21.40 51.10Q21 51.50 20.49 51.81Q19.98 52.12 19.36 52.31Q18.75 52.50 18.04 52.60Q17.32 52.70 16.53 52.70Q14.05 52.70 11.79 52.64Q9.53 52.57 7.59 52.31Q5.65 52.05 4.13 51.49Q2.60 50.92 1.60 49.92Q0.83 49.12 0.41 48.02Q0 46.92 0 45.45Q0 43.95 0.56 42.71Q1.13 41.47 2.10 40.50Q3.38 39.22 5.15 38.29Q6.93 37.35 8.88 36.50Q10.83 35.65 12.68 34.64Q14.53 33.63 15.95 32.20Q17.13 31.02 17.79 29.56Q18.45 28.10 18.45 26.15M19.25 20.60L16.40 18.05Q18.03 16.32 19 15.50Q19.98 14.67 20.58 14.57Q21.18 14.47 21.70 14.95Q22.43 15.62 21.99 16.80Q21.55 17.97 19.25 20.60M13.65 17.10L9.85 16.85Q10.10 14.25 10.39 12.89Q10.68 11.52 11.14 11.04Q11.60 10.55 12.40 10.60Q13.50 10.67 13.80 11.97Q14.10 13.27 13.65 17.10M7.30 17.75L4.55 19.90Q2.65 17.45 2.14 16.24Q1.63 15.02 2.45 14.35Q3.42 13.60 4.56 14.55Q5.70 15.50 7.30 17.75M14.35 50.70Q14.13 50.70 14.09 50.59Q14.05 50.47 14.05 50.30Q14.05 50.17 14.05 50.12Q14.05 50.07 14.05 50.00Q14.05 50.00 14.14 50.00Q14.23 50.00 14.40 50.00Q14.53 50.00 14.59 50.00Q14.65 50.00 14.65 50.00Q14.65 50.07 14.65 50.12Q14.65 50.17 14.65 50.25Q14.65 50.47 14.60 50.59Q14.55 50.70 14.35 50.70M10.65 51.70Q10.20 51.70 9.93 51.41Q9.65 51.12 9.53 50.66Q9.40 50.20 9.40 49.70L11.75 49.85Q11.75 50.82 11.43 51.26Q11.10 51.70 10.65 51.70M17.75 52.10Q16.98 52.10 16.49 51.64Q16 51.17 16 50.40L19.30 50.35Q19.30 51.00 19.09 51.39Q18.88 51.77 18.53 51.94Q18.18 52.10 17.75 52.10M7.60 18.60Q7.60 18.60 7.60 18.60Q7.60 18.60 7.60 18.60Q7.60 18.60 7.60 18.60Q7.60 18.60 7.60 18.60Q7.60 18.60 7.60 18.60Q7.60 18.60 7.60 18.60Q7.60 18.60 7.60 18.60Q7.60 18.60 7.60 18.60M13.15 18.20Q13.15 18.20 13.15 18.20Q13.15 18.20 13.15 18.20Q13.15 18.20 13.15 18.20Q13.15 18.20 13.15 18.20Q13.15 18.20 13.15 18.20Q13.15 18.20 13.15 18.20Q13.15 18.20 13.15 18.20Q13.15 18.20 13.15 18.20M18 20.95Q18 20.95 18 20.95Q18 20.95 18 20.95Q18 20.95 18 20.95Q18 20.95 18 20.95Q18 20.95 18 20.95Q18 20.95 18 20.95Q18 20.95 18 20.95Q18 20.95 18 20.95ZM39.40 52.65Q35.05 52.65 32.15 50.65Q29.25 48.65 27.80 44.89Q26.35 41.12 26.35 35.80Q26.35 29.50 28.18 25.14Q30 20.77 33.26 18.51Q36.53 16.25 40.85 16.25Q44.93 16.25 47.91 17.95Q50.90 19.65 52.53 23.24Q54.15 26.82 54.15 32.50Q54.15 39.05 52.36 43.54Q50.58 48.02 47.26 50.34Q43.95 52.65 39.40 52.65M39.75 44.95Q40.73 44.07 41.56 42.86Q42.40 41.65 42.95 40.35Q46 42.37 47.21 42.59Q48.43 42.80 48.95 41.75Q49.28 41.15 49.14 40.52Q49 39.90 47.90 39.07Q46.80 38.25 44.25 37.05Q44.55 36.17 44.76 35.40Q44.98 34.63 45.15 33.85Q47.65 34.35 48.90 34.47Q50.15 34.60 50.61 34.30Q51.08 34 51.20 33.25Q51.33 32.47 50.98 31.99Q50.63 31.50 49.41 31.20Q48.20 30.90 45.70 30.65Q46 27.97 45.79 25.37Q45.58 22.77 44.10 21.20Q43.78 20.85 43.40 20.60Q43.03 20.35 42.65 20.20Q42.28 20.00 41.88 19.89Q41.48 19.77 41.05 19.75Q40.75 19.70 40.16 19.70Q39.58 19.70 39.45 19.75Q39.05 19.77 38.66 19.85Q38.28 19.92 37.90 20.05Q37.53 20.15 37.16 20.31Q36.80 20.47 36.45 20.70Q34.78 21.62 33.51 23.37Q32.25 25.12 31.45 27.45Q31.30 27.90 31.19 28.35Q31.08 28.80 30.95 29.30Q30.80 29.97 30.66 30.71Q30.53 31.45 30.45 32.20Q30.43 32.67 30.39 33.20Q30.35 33.72 30.30 34.25Q30.30 34.65 30.30 35.04Q30.30 35.42 30.30 35.85Q30.30 36.40 30.34 36.92Q30.38 37.45 30.40 37.95Q30.60 40.65 31.20 42.57Q31.80 44.50 32.85 45.55Q33.15 45.85 33.49 46.07Q33.83 46.30 34.20 46.45Q34.50 46.55 34.84 46.62Q35.18 46.70 35.50 46.70Q35.78 46.70 36.31 46.64Q36.85 46.57 37.10 46.50Q37.45 46.42 37.78 46.27Q38.10 46.12 38.40 45.95Q38.78 45.75 39.11 45.50Q39.45 45.25 39.75 44.95M38.05 36.85Q36.83 36.85 36.09 35.81Q35.35 34.77 35.35 33.50Q35.35 32.25 36.21 31.50Q37.08 30.75 38.30 30.75Q39.58 30.75 40.51 31.55Q41.45 32.35 41.45 33.60Q41.45 34.88 40.46 35.86Q39.48 36.85 38.05 36.85M32.10 17.95Q33.23 19.45 34.08 20.55Q34.93 21.65 35.85 23.00Q37.18 24.87 37.26 25.77Q37.35 26.67 36.60 27.20Q35.90 27.72 34.86 27.24Q33.83 26.75 32.50 25.15Q31.53 23.90 30.66 22.77Q29.80 21.65 28.75 20.15Q27.55 18.45 27.49 17.47Q27.43 16.50 28.20 15.95Q28.95 15.42 29.89 15.84Q30.83 16.25 32.10 17.95M28.90 42.60Q29.35 42.15 29.79 41.71Q30.23 41.27 30.64 40.86Q31.05 40.45 31.40 40.10Q32.80 38.82 33.56 38.61Q34.33 38.40 35 39.15Q35.65 39.77 35.39 40.60Q35.13 41.42 34 42.60Q33.48 43.15 32.80 43.81Q32.13 44.47 31.40 45.15Q30.58 45.92 29.81 46.09Q29.05 46.25 28.45 45.65Q27.75 44.90 27.98 44.09Q28.20 43.27 28.90 42.60ZM75.85 26.15Q75.85 24.50 75.06 22.95Q74.28 21.40 72.66 20.40Q71.05 19.40 68.55 19.40Q65.70 19.40 64.05 20.84Q62.40 22.27 62.40 24.60Q62.40 26.40 63.43 27.62Q64.45 28.85 66.55 28.85Q67.50 28.85 68.18 28.44Q68.85 28.02 68.85 27.20Q68.85 26.25 68.35 26.00Q67.85 25.75 67.18 25.70Q66.50 25.65 66 25.35Q65.50 25.05 65.50 24.05Q65.50 23.25 66.11 22.67Q66.73 22.10 67.95 22.10Q69.80 22.10 71.20 23.31Q72.60 24.52 72.60 26.85Q72.60 29.25 70.76 30.80Q68.93 32.35 66 32.35Q62.25 32.35 60.45 30.20Q58.65 28.05 58.65 24.90Q58.65 22.30 59.90 20.26Q61.15 18.22 63.49 17.06Q65.83 15.90 69.10 15.90Q72.78 15.90 75.19 17.31Q77.60 18.72 78.80 20.97Q80 23.22 80 25.70Q80 28.47 79.01 30.60Q78.03 32.72 76.45 34.30Q74.83 35.95 72.94 37.09Q71.05 38.22 69.24 39.04Q67.43 39.85 65.96 40.55Q64.50 41.25 63.70 42.05Q63.40 42.35 63.40 42.65Q63.45 43.35 64.25 43.30Q65.05 43.25 66.65 43.00Q66.50 46.30 67 47.35Q67.50 48.40 68.35 48.40Q68.88 48.40 69.25 47.94Q69.63 47.47 69.78 46.20Q69.93 44.92 69.75 42.45Q70.48 42.32 71.16 42.21Q71.85 42.10 72.55 42.00Q72.68 45.75 73.03 47.07Q73.38 48.40 74.45 48.40Q75.70 48.40 75.90 46.86Q76.10 45.32 75.45 41.50Q76.95 41.25 78.03 41.92Q79.10 42.60 79.68 43.89Q80.25 45.17 80.25 46.75Q80.25 49.65 78.80 51.10Q78.40 51.50 77.89 51.81Q77.38 52.12 76.76 52.31Q76.15 52.50 75.44 52.60Q74.73 52.70 73.93 52.70Q71.45 52.70 69.19 52.64Q66.93 52.57 64.99 52.31Q63.05 52.05 61.53 51.49Q60.00 50.92 59.00 49.92Q58.23 49.12 57.81 48.02Q57.40 46.92 57.40 45.45Q57.40 43.95 57.96 42.71Q58.53 41.47 59.50 40.50Q60.78 39.22 62.55 38.29Q64.33 37.35 66.28 36.50Q68.23 35.65 70.08 34.64Q71.93 33.63 73.35 32.20Q74.53 31.02 75.19 29.56Q75.85 28.10 75.85 26.15M76.65 20.60L73.80 18.05Q75.43 16.32 76.40 15.50Q77.38 14.67 77.98 14.57Q78.58 14.47 79.10 14.95Q79.83 15.62 79.39 16.80Q78.95 17.97 76.65 20.60M71.05 17.10L67.25 16.85Q67.50 14.25 67.79 12.89Q68.08 11.52 68.54 11.04Q69 10.55 69.80 10.60Q70.90 10.67 71.20 11.97Q71.50 13.27 71.05 17.10M64.70 17.75L61.95 19.90Q60.05 17.45 59.54 16.24Q59.03 15.02 59.85 14.35Q60.83 13.60 61.96 14.55Q63.10 15.50 64.70 17.75M71.75 50.70Q71.53 50.70 71.49 50.59Q71.45 50.47 71.45 50.30Q71.45 50.17 71.45 50.12Q71.45 50.07 71.45 50.00Q71.45 50.00 71.54 50.00Q71.63 50.00 71.80 50.00Q71.93 50.00 71.99 50.00Q72.05 50.00 72.05 50.00Q72.05 50.07 72.05 50.12Q72.05 50.17 72.05 50.25Q72.05 50.47 72 50.59Q71.95 50.70 71.75 50.70M68.05 51.70Q67.60 51.70 67.33 51.41Q67.05 51.12 66.93 50.66Q66.80 50.20 66.80 49.70L69.15 49.85Q69.15 50.82 68.83 51.26Q68.50 51.70 68.05 51.70M75.15 52.10Q74.38 52.10 73.89 51.64Q73.40 51.17 73.40 50.40L76.70 50.35Q76.70 51.00 76.49 51.39Q76.28 51.77 75.93 51.94Q75.58 52.10 75.15 52.10M65 18.60Q65 18.60 65 18.60Q65 18.60 65 18.60Q65 18.60 65 18.60Q65 18.60 65 18.60Q65 18.60 65 18.60Q65 18.60 65 18.60Q65 18.60 65 18.60Q65 18.60 65 18.60M70.55 18.20Q70.55 18.20 70.55 18.20Q70.55 18.20 70.55 18.20Q70.55 18.20 70.55 18.20Q70.55 18.20 70.55 18.20Q70.55 18.20 70.55 18.20Q70.55 18.20 70.55 18.20Q70.55 18.20 70.55 18.20Q70.55 18.20 70.55 18.20M75.40 20.95Q75.40 20.95 75.40 20.95Q75.40 20.95 75.40 20.95Q75.40 20.95 75.40 20.95Q75.40 20.95 75.40 20.95Q75.40 20.95 75.40 20.95Q75.40 20.95 75.40 20.95Q75.40 20.95 75.40 20.95Q75.40 20.95 75.40 20.95ZM92.55 43.80Q92.67 43.80 92.76 43.80Q92.85 43.80 92.95 43.80Q93.03 46.05 93.30 47.20Q93.58 48.35 94.03 48.72Q94.47 49.10 95.05 49.05Q95.60 49.00 95.96 48.56Q96.33 48.12 96.35 46.91Q96.38 45.70 95.90 43.35Q96.47 43.20 97.05 42.99Q97.63 42.77 98.15 42.55Q99.25 45.02 100.10 45.86Q100.95 46.70 101.80 46.40Q102.55 46.12 102.56 44.82Q102.58 43.52 100.95 40.80Q102.20 39.52 102.36 38.12Q102.53 36.72 101.35 35.76Q100.17 34.80 97.40 34.80Q93.72 34.80 91.60 35.31Q89.47 35.82 88.56 36.86Q87.65 37.90 87.65 39.45Q87.65 41.27 88.85 42.54Q90.05 43.80 92.55 43.80M95.10 52.70Q90.72 52.70 88.17 51.05Q85.63 49.40 84.54 46.54Q83.45 43.67 83.45 40.05Q83.45 37.22 84.24 34.40Q85.03 31.57 86.89 28.61Q88.75 25.65 92 22.40Q94.42 19.97 96.30 18.26Q98.17 16.55 99.63 15.65Q101.08 14.75 102.20 14.75Q103.22 14.75 103.81 15.27Q104.40 15.80 104.44 16.64Q104.47 17.47 103.85 18.40Q103.40 19.07 102.03 20.14Q100.65 21.20 98.90 22.46Q97.15 23.72 95.47 25.04Q93.80 26.35 92.70 27.56Q91.60 28.77 91.60 29.70Q91.60 30.57 92.46 30.86Q93.33 31.15 94.74 31.17Q96.15 31.20 97.85 31.22Q99.55 31.25 101.25 31.54Q102.95 31.82 104.36 32.65Q105.78 33.47 106.64 35.13Q107.50 36.77 107.50 39.55Q107.50 43.52 106.04 46.49Q104.58 49.45 101.80 51.07Q99.03 52.70 95.10 52.70M97.85 15.65Q98.63 16.35 99.69 17.39Q100.75 18.42 101.80 19.46Q102.85 20.50 103.55 21.20Q105.03 22.65 105.31 23.71Q105.60 24.77 105 25.35Q104.38 25.95 103.26 25.50Q102.15 25.05 100.50 23.40Q99.92 22.82 99.01 21.84Q98.10 20.85 97.10 19.77Q96.10 18.70 95.25 17.85Q94.05 16.65 93.81 15.74Q93.58 14.82 94.05 14.35Q94.63 13.77 95.51 14.04Q96.40 14.30 97.85 15.65M92.80 20.65Q93.08 20.95 93.83 21.74Q94.58 22.52 95.40 23.39Q96.22 24.25 96.70 24.75Q98.33 26.47 98.45 27.37Q98.58 28.27 98.05 28.70Q97.53 29.10 96.66 28.86Q95.80 28.62 94.15 27.05Q93.58 26.52 92.72 25.69Q91.88 24.85 91.08 24.05Q90.28 23.25 89.85 22.85Q88.05 21.15 87.78 20.05Q87.50 18.95 88.20 18.40Q88.92 17.82 90.06 18.35Q91.20 18.87 92.80 20.65M96.90 22.95Q96.45 22.95 96.15 22.62Q95.85 22.30 95.85 21.85Q95.85 21.32 96.19 20.96Q96.53 20.60 97.15 20.60Q97.53 20.60 97.86 20.91Q98.20 21.22 98.20 21.60Q98.20 22.22 97.85 22.59Q97.50 22.95 96.90 22.95M94.80 51.10Q94.80 51.00 94.80 50.91Q94.80 50.82 94.80 50.74Q94.80 50.65 94.80 50.55Q94.80 49.87 95.31 49.54Q95.83 49.20 96.45 49.20Q97.13 49.15 97.69 49.47Q98.25 49.80 98.25 50.40Q98.25 50.47 98.25 50.56Q98.25 50.65 98.25 50.74Q98.25 50.82 98.25 50.90Q98.25 51.67 97.72 52.04Q97.20 52.40 96.55 52.45Q95.92 52.47 95.36 52.12Q94.80 51.77 94.80 51.10M92.85 50.25Q92.53 50.82 92.19 51.15Q91.85 51.47 91.44 51.52Q91.03 51.57 90.45 51.30Q89.80 50.97 89.58 50.57Q89.35 50.17 89.42 49.70Q89.50 49.22 89.75 48.70L92.85 50.25M99.90 49.35L103 47.80Q103.42 48.65 103.29 49.31Q103.15 49.97 102.20 50.40Q101.20 50.85 100.72 50.49Q100.25 50.12 99.90 49.35M86.75 44.85L88.95 47.50Q88.17 48.20 87.50 48.22Q86.83 48.25 86.25 47.40Q85.65 46.60 85.89 46.00Q86.13 45.40 86.75 44.85M90.60 33.10Q90.60 33.10 90.60 33.10Q90.60 33.10 90.60 33.10Q90.60 33.10 90.60 33.10Q90.60 33.10 90.60 33.10Q90.60 33.10 90.60 33.10Q90.60 33.10 90.60 33.10Q90.60 33.10 90.60 33.10Q90.60 33.10 90.60 33.10M102.35 33.75Q102.35 33.75 102.35 33.75Q102.35 33.75 102.35 33.75Q102.35 33.75 102.35 33.75Q102.35 33.75 102.35 33.75Q102.35 33.75 102.35 33.75Q102.35 33.75 102.35 33.75Q102.35 33.75 102.35 33.75Q102.35 33.75 102.35 33.75M104.90 35.65Q104.90 35.65 104.90 35.65Q104.90 35.65 104.90 35.65Q104.90 35.65 104.90 35.65Q104.90 35.65 104.90 35.65Q104.90 35.65 104.90 35.65Q104.90 35.65 104.90 35.65Q104.90 35.65 104.90 35.65Q104.90 35.65 104.90 35.65Z"/></g></g></svg>